<?xml version="1.0" encoding="UTF-8"?>
<svg width="1024px" height="1024px" viewBox="0 0 1024 1024" version="1.1" xmlns="http://www.w3.org/2000/svg" xmlns:xlink="http://www.w3.org/1999/xlink">
    <!-- Generator: Sketch 53.2 (72643) - https://sketchapp.com -->
    <title>Night</title>
    <desc>Created with Sketch.</desc>
    <g id="Night" stroke="none" stroke-width="1" fill="none" fill-rule="evenodd">
        <rect fill="#2C477E" x="0" y="0" width="1024" height="1024"></rect>
        <g id="Group-61" fill="#233862">
            <path d="M876.278717,414.847559 C881.137554,423.463309 875.003548,426.457957 873.794335,420.051374 C870.958181,405.078133 867.286572,423.536948 879.73047,416.197606 C910.774258,421.524152 893.097767,447.420494 896.109806,464.578355 C896.725405,454.588013 903.079268,453.336152 903.584939,461.681893 C904.508338,477.07242 910.950144,458.78543 898.000575,464.357439 C875.619147,456.085337 871.397895,437.724707 876.278717,414.847559" id="Fill-1"></path>
            <path d="M993.16596,783.393233 C986.427791,782.025005 979.667674,780.728789 972.929505,779.264545 C949.576374,774.1997 932.478545,781.424905 926.135448,808.477418 C925.476995,811.30989 927.320664,816.854815 929.47161,818.127028 C949.269096,829.88899 959.650704,812.15003 971.875981,800.964164 C979.623777,793.882983 986.778966,785.985666 994,778.928489 C987.064296,784.881482 985.396215,783.897317 988.951861,776 C990.35656,778.472412 991.76126,780.920821 993.16596,783.393233" id="Fill-3"></path>
            <path d="M738,426 C783.480324,408.628655 795.951085,380.700688 813.366774,359.463538 C820.545595,350.715913 818.940662,337.507744 811.588335,328.636216 C802.804581,318.104374 791.288105,324.101328 786.473306,332.229433 C771.942159,356.737649 759.840098,383.104426 738,426" id="Fill-5"></path>
            <path d="M566.00647,642.252246 C552.805249,642.130628 539.214484,643.97922 536.42275,661.589486 C533.19819,681.899669 549.104579,686.642766 560.877471,686.983296 C573.061549,687.348149 587.691098,681.826698 584.574745,661.492192 C582.951644,650.935761 579.207691,640.209066 566.00647,642.252246" id="Fill-7"></path>
            <path d="M998,488.515975 C995.890244,486.40648 993.824441,482.460483 991.428989,482.212307 C973.386178,480.32617 960.112296,491.270727 948.113058,504.572954 C946.772484,506.06201 946.618647,511.050345 947.783409,512.812394 C949.695375,515.666416 953.255589,519.190514 955.936737,518.991973 C974.506986,517.726276 987.011687,505.019671 998,488.515975" id="Fill-9"></path>
            <path d="M810.536038,542.012641 C813.838903,534.092419 811.557318,526.074718 803.647826,526.001608 C795.216829,525.928498 783.200485,528.34112 779.158821,534.750407 C773.813395,543.206766 778.85461,556.07408 789.219522,558.559811 C799.519245,561.045543 806.516104,552.662293 810.536038,542.012641" id="Fill-11"></path>
            <path d="M353,624.501508 C348.52997,605.456916 338.510192,596.081116 322.940667,598.327402 C318.621797,598.937805 311.646823,608.118275 312.013927,612.757343 C313.439154,631.38686 324.732998,639.370939 340.453684,636.39217 C345.334006,635.464356 349.264178,628.212761 353,624.501508" id="Fill-13"></path>
            <path d="M713,960.258227 C709.866701,954.949867 706.424485,944.811377 703.489775,945.002669 C693.913353,945.552634 680.122424,946.772122 676.08444,953.467352 C669.817841,963.868869 678.644036,973.768244 689.765042,975.657255 C700.488869,977.45062 709.006147,972.190082 713,960.258227" id="Fill-15"></path>
            <path d="M503,100.087558 C500.262956,93.7876167 498.916157,84.1566718 494.37614,81.6222127 C486.012952,76.9877731 462.682914,99.4841153 466.397473,108.004726 C468.591452,113.049506 476.476744,116.839126 482.211502,117.708084 C493.290012,119.373585 501.457698,113.966739 503,100.087558" id="Fill-17"></path>
            <path d="M641.278,175.385808 C640.123,172.260808 638.989,169.135808 637.834,166.010808 C633.13,168.560808 628.426,171.135808 623.722,173.710808 C624.751,176.260808 626.242,181.135808 626.767,180.985808 C631.702,179.635808 636.469,177.435808 641.278,175.385808" id="Fill-19"></path>
            <path d="M18.817089,196.066437 C26.608089,193.716437 29.422089,188.191437 25.810089,180.466437 C24.718089,178.166437 20.518089,176.691437 17.914089,176.966437 C15.205089,177.266437 11.068089,179.516437 10.396089,182.016437 C8.00208897,190.916437 11.362089,195.816437 18.817089,196.066437" id="Fill-21"></path>
            <path d="M830,227.219507 C833.370008,232.69648 835.795555,239.566717 840.281743,243.314119 C846.807109,248.695004 853.182219,245.692278 855.779486,236.972361 C859.450004,224.649174 854.706235,216.673934 843.372706,217.010239 C838.843587,217.15437 834.464724,223.592214 830,227.219507" id="Fill-23"></path>
            <path d="M134.459561,447 C129.64336,451.829257 125.32168,456.1951 121,460.560943 C125.859203,464.609714 130.739906,472.02433 135.577608,471.99994 C144.306972,471.95116 154.003876,466.999952 148.284638,453.707301 C146.457062,449.463409 138.286721,448.707313 134.459561,447" id="Fill-25"></path>
            <path d="M407.618975,484 C401.814074,487.40899 395.164014,489.816739 390.40444,494.441523 C383.287319,501.3787 384.955395,509.603187 394.252133,510.914337 C399.767902,511.677188 407.463288,507.219278 411.689079,502.546815 C417.627426,495.943386 415.158675,488.648623 407.618975,484" id="Fill-27"></path>
            <path d="M158.797134,957.600305 C157.348134,961.250305 155.248134,964.175305 155.080134,967.300305 C154.408134,978.950305 158.377134,982.575305 165.097134,976.475305 C166.546134,975.175305 166.042134,969.150305 164.971134,966.025305 C163.900134,962.825305 161.023134,960.475305 158.797134,957.600305" id="Fill-29"></path>
            <path d="M1018.14234,985.878406 C1023.34848,977.339145 1021.47339,970.91044 1012.25233,970.109884 C1006.29614,969.576181 998.751637,970.958959 994.472006,974.8647 C991.670392,977.436182 991.096833,989.153407 993.545488,991.385259 C1002.59007,999.512112 1010.68607,992.282852 1018.14234,985.878406" id="Fill-31"></path>
            <path d="M316.48065,1017.76594 C313.91865,1011.26547 312.78465,1002.10007 308.50065,998.937012 C301.71765,993.930909 296.23665,999.13626 296.53065,1008.72506 C296.63565,1012.2119 298.75665,1016.22177 300.89865,1018.91161 C306.67365,1026.18416 312.11265,1025.5366 316.48065,1017.76594" id="Fill-33"></path>
            <path d="M318.4275,484.990232 C315.8235,482.940232 313.3035,479.415232 310.6155,479.240232 C308.0115,479.065232 305.2605,482.315232 302.5725,484.065232 C305.0295,486.090232 307.4655,489.690232 309.9435,489.765232 C312.7365,489.840232 315.5925,486.715232 318.4275,484.990232" id="Fill-35"></path>
            <path d="M678.836719,759.9125 C676.883719,764.3875 673.859719,769.6625 672.431719,775.4875 C671.990719,777.2125 676.022719,780.5125 677.996719,783.0875 C681.524719,778.8375 685.073719,774.5875 688.601719,770.3625 C685.283719,766.8125 681.965719,763.2625 678.836719,759.9125" id="Fill-37"></path>
            <polygon id="Fill-39" points="44.644 905.1875 43.678 911.8125 51.322 909.5375"></polygon>
            <path d="M914,909.661504 C911.996293,906.786504 909.672845,901.236504 908.074143,901.486504 C902.254866,902.486504 896.691381,905.436504 891,907.611504 C893.088971,910.411504 895.433735,915.786504 897.18165,915.511504 C902.915663,914.686504 908.415199,911.786504 914,909.661504" id="Fill-41"></path>
            <path d="M712.972634,25.4535166 C717.893442,21.3423141 727.539958,15.2370552 726.976342,13.4891787 C723.312833,2.46032402 714.533419,-2.80792353 704.735159,1.50022283 C701.071651,3.10039147 697.60324,12.0859539 698.036791,17.2557295 C698.838861,26.4628537 705.255421,29.0231236 712.972634,25.4535166" id="Fill-43"></path>
            <path d="M114.317936,129.193581 C111.671936,128.193581 108.773936,125.818581 106.400936,126.418581 C96.5309357,128.843581 96.0899357,133.643581 105.287936,138.268581 C107.492936,139.368581 111.146936,138.068581 113.456936,136.493581 C114.569936,135.768581 114.086936,131.743581 114.317936,129.193581" id="Fill-45"></path>
            <path d="M976.782709,228.112758 C976.551709,224.812758 977.349709,220.262758 975.837709,218.487758 C973.989709,216.337758 969.306709,214.712758 967.437709,216.037758 C959.961709,221.337758 960.549709,227.487758 968.886709,231.262758 C970.881709,232.187758 974.115709,229.262758 976.782709,228.112758" id="Fill-47"></path>
            <path d="M80.1735965,285.834233 C80.8665965,282.459233 83.0715965,277.784233 81.9585965,275.959233 C77.1915965,268.109233 72.5925965,269.434233 70.8075965,279.109233 C70.3245965,281.759233 72.2775965,285.659233 74.0415965,287.959233 C74.6505965,288.784233 78.0315965,286.634233 80.1735965,285.834233" id="Fill-49"></path>
            <path d="M400,319.807394 C404.371459,323.982394 408.382167,330.682394 413.199261,331.632394 C418.058796,332.557394 427.374673,329.007394 428.308383,325.207394 C431.491484,312.407394 423.151758,307.982394 414.239074,309.507394 C409.167332,310.382394 404.732211,316.182394 400,319.807394" id="Fill-51"></path>
            <path d="M371.628202,395.819476 C374.169202,393.894476 376.689202,391.969476 379.230202,390.069476 C377.256202,387.344476 375.681202,383.219476 373.224202,382.194476 C365.769202,379.144476 362.199202,383.144476 364.425202,391.919476 C364.929202,393.894476 369.129202,394.544476 371.628202,395.819476" id="Fill-53"></path>
            <polygon id="Fill-55" points="615.6755 932.325 620.3795 936.425 621.3245 930.575"></polygon>
            <polygon id="Fill-57" points="7.098 437.725 13.272 442.2 13.902 434.8"></polygon>
            <path d="M706.3275,344.049231 C704.5425,341.649231 702.8415,337.499231 700.9095,337.299231 C698.9565,337.149231 696.7515,340.924231 694.6725,342.949231 C696.4575,345.349231 698.1375,349.499231 700.0905,349.699231 C702.0225,349.874231 704.2275,346.099231 706.3275,344.049231" id="Fill-59"></path>
        </g>
    </g>
</svg>