<?xml version="1.0" encoding="UTF-8"?>
<svg width="1024px" height="1024px" viewBox="0 0 1024 1024" version="1.1" xmlns="http://www.w3.org/2000/svg" xmlns:xlink="http://www.w3.org/1999/xlink">
    <!-- Generator: Sketch 53.2 (72643) - https://sketchapp.com -->
    <title>Ramen</title>
    <desc>Created with Sketch.</desc>
    <g id="Ramen" stroke="none" stroke-width="1" fill="none" fill-rule="evenodd">
        <rect fill="#991127" x="0" y="0" width="1024" height="1024"></rect>
        <g id="Group-177" transform="translate(0.000000, 3.000000)" fill="#000000" opacity="0.297642299">
            <path d="M581.302,733.2195 L583.624,732.4725 C583.624,732.4725 582.472,734.3085 582.679,734.5065 C581.581,736.5045 580.474,738.5115 579.376,740.5275 C580.51,740.5095 581.653,740.4915 582.787,740.4735 C582.292,738.0525 581.806,735.6405 581.302,733.2195" id="Fill-1"></path>
            <path d="M304.448164,584.584101 C304.529164,581.425101 306.401164,581.722101 305.654164,583.180101 C303.026164,588.256101 308.822164,582.730101 303.170164,583.837101 C306.374164,579.940101 305.753164,581.884101 304.448164,584.584101" id="Fill-3"></path>
            <path d="M725.977058,725 L724,725.949425 L726.904099,725.905873 C725.040557,731.132064 724.520278,736.77635 731.737958,737.804168 C736.817767,738.527124 743.146244,737.386072 745.917909,732.055358 C746.476025,730.983989 744.063826,727.229841 742.446233,726.864008 C737.054257,725.653274 731.406872,725.426806 725.977058,725" id="Fill-5"></path>
            <path d="M79.6094721,767.007204 C79.0131881,764.122989 81.2240257,764.335977 80.7103041,765.711526 C78.7288065,770.991858 83.9669321,765.356546 78.1692169,766.252871 C78.7563273,762.197221 79.4810417,758.088324 75.3804425,755.141988 C72.022905,752.736996 68.5185898,750.411875 64.3812962,753.438082 C63.5006306,754.068172 62.6933538,756.331172 63.1153394,756.81927 C64.7023722,758.665167 66.6380018,760.351324 68.7571034,761.593755 C72.298113,763.643766 76.0776361,765.312173 79.6094721,767.007204" id="Fill-7"></path>
            <path d="M856.209217,859.965704 C863.605313,856.61217 872.475301,856.278669 877.847016,848.747113 C878.610598,847.6725 879.178846,845.940149 878.947995,844.717313 C878.734902,843.651964 877.296526,842.160475 876.310972,842.067836 C867.210133,841.22482 860.071524,848.283917 856.697555,860.743873 C851.929603,854.824236 845.066239,854.046068 838.460362,853.212316 C836.533648,852.971455 833.301741,854.57411 832.476006,856.287933 C831.028751,859.270911 833.035375,862.142723 836.418223,861.9945 C843.032979,861.698055 849.612219,860.679025 856.209217,859.965704" id="Fill-9"></path>
            <path d="M1021.44304,391.367469 C1006.74976,389.32152 995.206368,396.117314 984.302215,404.346174 C983.727825,404.78781 984.01502,407.464668 984.802491,408.257811 C986.673891,410.159552 989.00851,412.827397 991.287543,412.953579 C1005.05438,413.71067 1014.40212,405.067213 1024,397.252951" id="Fill-11"></path>
            <path d="M669.895884,296.556936 C668.467865,296.383696 666.904276,295.751372 665.629905,296.106513 C656.835844,298.557851 650.961086,304.08419 648.168316,312.442994 C647.815831,313.517078 648.023707,315.578628 648.728678,316.003064 C651.006276,317.354332 653.708665,319.138699 656.139911,318.991445 C666.154114,318.393769 671.540816,312.38236 672.968834,303.321936 C673.294205,301.260387 670.989492,298.826372 669.895884,296.556936" id="Fill-13"></path>
            <path d="M259.723955,936 C263.654037,935.397409 266.515573,935.211315 269.223164,934.4758 C272.863471,933.50102 273.615077,931.453984 272.56464,928.6094 C269.603495,920.589624 255.639928,914.971351 247.843151,919.774354 C244.77334,921.661882 243.233906,926.473747 242.011415,930.275387 C241.757861,931.05521 245.787554,933.970687 248.20537,934.599862 C252.253175,935.654396 256.590755,935.663258 259.723955,936" id="Fill-15"></path>
            <path d="M521.63204,228.743184 C524.710149,228.70165 528.484179,226.118228 527.948856,221.998043 C527.190481,216.050357 522.122753,213.807515 516.082521,215.601789 C511.924842,216.839505 509.09655,220.212076 510.26534,224.415329 C511.443051,228.67673 515.573963,229.515719 521.63204,228.743184" id="Fill-17"></path>
            <path d="M913.925552,542.672146 C922.776224,541.120946 929.313755,540.074574 935.779837,538.679411 C936.440734,538.541731 937.137356,536.292949 936.976598,535.145611 C936.806908,533.842236 935.967389,532.098282 934.922456,531.54756 C925.946748,526.820529 916.71204,524.186242 908.031057,531.777028 C906.468123,533.144654 905.717915,537.623861 906.70033,539.487137 C909.41537,544.599674 902.681357,542.08471 908.343644,542.874078 C910.924718,543.241226 913.639758,542.690504 913.925552,542.672146" id="Fill-19"></path>
            <path d="M177.302328,759.532623 C180.199983,758.474724 185.861555,758.706946 183.391861,752.746586 C182.634013,750.923215 179.308397,749.27186 176.999189,749.048239 C171.819073,748.549393 169.50095,751.981115 170.089396,756.487937 C170.526274,759.696039 173.388265,760.693732 177.302328,759.532623" id="Fill-21"></path>
            <path d="M32.8621397,874.916172 C32.1691397,871.70583 30.0811397,870.267021 26.8861397,871.364113 C25.8331397,871.732808 24.9331397,873.351468 24.5101397,874.59244 C23.4121397,877.811775 24.8071397,880.455586 27.8491397,879.934018 C29.7571397,879.601293 31.2151397,876.678713 32.8621397,874.916172" id="Fill-23"></path>
            <path d="M391,773.501933 C389.586267,771.484125 388.646878,768.470403 386.656491,767.630371 C382.089761,765.733804 378.778649,768.340501 378.025278,772.462718 C377.736951,774.090821 379.978462,777.511568 381.522407,777.771372 C385.26136,778.394901 389.437453,777.979215 391,773.501933" id="Fill-25"></path>
            <path d="M3.11644996,760.509885 C9.83894322,762.243532 14.2641139,759.236738 17.276996,753.719769 C18.8493439,750.848416 17.8513267,748.672328 14.3394359,747.227623 C7.59811214,746.098947 3.22943304,749.26827 0,754.505327" id="Fill-27"></path>
            <path d="M392.478795,648 C397.088303,647.110344 400.836392,644.844063 399.837513,639.581047 C399.480115,637.679994 396.162736,635.301335 394.000024,635.057851 C388.895658,634.524057 386.027316,637.726818 387.301117,642.90555 C387.795975,644.928347 390.682645,646.333066 392.478795,648" id="Fill-29"></path>
            <path d="M768.872858,611.306979 C766.592765,610.235979 764.35669,609.002979 761.979759,608.237979 C761.636425,608.120979 759.761291,610.793979 760.025394,611.198979 C761.381125,613.295979 762.965745,616.238979 764.937717,616.661979 C767.974906,617.327979 769.462689,614.699979 768.872858,611.306979" id="Fill-31"></path>
            <path d="M618.892626,511.683696 C617.961459,504.044846 612.616199,502.018771 607.333615,503.405993 C605.068371,503.999213 602.319637,510.497256 603.152315,513.280827 C603.94918,515.98226 608.945251,518.711073 612.275965,518.97574 C616.170752,519.295167 619.66263,516.438583 618.892626,511.683696" id="Fill-33"></path>
            <path d="M1019.41507,454.140556 C1017.22267,453.669426 1013.50804,454.405567 1012.41662,456.005445 C1009.88914,459.676332 1010.64547,463.975391 1015.48024,464.966727 C1017.32798,465.339704 1019.8076,462.48348 1022,461.079906" id="Fill-35"></path>
            <path d="M994.039194,156.580115 C994.608987,158.813035 998.199583,161.278179 1002.67652,160.974502 C1004.00604,160.876253 1006.29425,156.49973 1005.96866,154.409717 C1005.24511,149.684859 1000.96715,147.612709 996.598738,148.059293 C993.062407,148.41656 991.977088,151.301493 994.039194,156.580115" id="Fill-37"></path>
            <path d="M973,125.970651 C971.772365,123.729651 971.129318,120.552651 969.151461,119.535651 C967.602303,118.725651 964.445527,120.552651 962,121.209651 C963.169176,123.387651 963.792737,126.582651 965.673162,127.455651 C967.417183,128.256651 970.496014,126.573651 973,125.970651" id="Fill-39"></path>
            <path d="M1021.84729,113.951676 C1020.93829,111.594431 1020.64129,108.460905 1019.00329,107.050345 C1016.46529,104.863504 1013.48629,106.25513 1013.17129,109.710529 C1012.96429,112.04884 1014.53929,114.557554 1015.31329,117 C1017.50029,115.996514 1019.66929,114.974095 1021.84729,113.951676" id="Fill-41"></path>
            <path d="M916.249208,931 C911.759765,932.07636 909.355033,934.762813 910.150515,939.308433 C910.333384,940.313628 912.043213,941.567899 913.231864,941.799183 C918.269915,942.768797 921.140963,940.153509 920.994668,935.54562 C920.948951,933.97111 917.913319,932.49445 916.249208,931" id="Fill-43"></path>
            <path d="M976.963331,843.814632 C973.404223,843.427632 969.686542,842.815632 965.96886,842.761632 C964.990986,842.743632 963.986683,844.471632 963,845.398632 C963.933825,846.388632 964.832412,848.197632 965.775047,848.224632 C969.501538,848.323632 973.23684,847.873632 976.954522,847.486632 C977.051428,847.468632 976.963331,845.731632 976.963331,843.814632" id="Fill-45"></path>
            <path d="M374,809.191071 C371.016119,803.999555 366.679084,804.653875 362.775752,805.798936 C360.815411,806.384381 357.770812,809.776516 358.013686,810.181162 C360.529167,814.219008 364.79681,814.615044 368.882298,813.383888 C370.903356,812.781225 372.412645,810.54276 374,809.191071" id="Fill-47"></path>
            <path d="M218.548569,741 C221.08085,740.154968 224.759824,739.867821 225.801403,738.30082 C226.670979,736.979945 224.454039,734.157703 223.603575,732 C221.14774,733.033728 218.128114,733.608022 216.379407,735.199635 C213.818459,737.53783 214.984264,739.818596 218.548569,741" id="Fill-49"></path>
            <path d="M746.704969,665.457296 C747.588371,662.539087 746.495051,660.256439 743.328797,660.032649 C741.045946,659.86257 737.258686,660.345954 736.611441,661.742398 C734.704691,665.833262 737.529829,668.617198 741.325835,668.993164 C742.996428,669.14534 744.911924,666.719467 746.704969,665.457296" id="Fill-51"></path>
            <path d="M263.330893,638.96981 C267.645461,638.62781 269.375264,636.33281 266.780559,633.30881 C265.189935,631.43681 261.183551,629.52881 259.205212,630.14981 C257.197049,630.77081 256.35203,634.46081 255,636.81881 C257.763709,637.53881 260.557242,638.25881 263.330893,638.96981" id="Fill-53"></path>
            <path d="M1018.9024,599.236019 C1016.3064,599.092019 1013.64,600.271019 1011,600.892019 C1012.1968,603.214019 1012.9272,606.850019 1014.74,607.543019 C1016.7112,608.299019 1020.6184,607.120019 1022,605.383019" id="Fill-55"></path>
            <path d="M582.717426,607.224303 C581.011911,604.243012 578.034653,603.004367 574.978527,604.909318 C572.750513,606.293183 571.626648,608.984033 570,611.085459 C572.760372,611.768849 575.530602,613.041664 578.281115,612.998952 C582.204786,612.92207 583.673698,610.547289 582.717426,607.224303" id="Fill-57"></path>
            <path d="M215,601.972793 C212.728723,600.451793 210.541223,597.877793 208.176862,597.715793 C205.87766,597.562793 203.392287,599.884793 201,601.108793 C203.215426,602.602793 205.384309,605.158793 207.692819,605.284793 C210.047872,605.428793 212.551862,603.187793 215,601.972793" id="Fill-59"></path>
            <path d="M1011.20642,548.990942 C1011.20642,547.847942 1011.65642,546.290942 1011.09842,545.732942 C1010.38742,545.012942 1008.47042,544.472942 1007.75942,544.931942 C1004.84342,546.803942 1004.92442,548.954942 1007.92142,550.178942 C1008.74042,550.502942 1010.13542,549.404942 1011.20642,548.990942" id="Fill-61"></path>
            <path d="M644,541.349342 C643.457166,538.902443 642.914332,536.455545 642.371498,534 C640.02568,535.115371 637.166108,535.807073 635.430978,537.441221 C632.125507,540.536591 631.63114,544.116153 637.505379,544.980781 C639.395605,545.248816 641.818971,542.646284 644,541.349342" id="Fill-63"></path>
            <path d="M685.91996,509.437041 C685.92896,506.206041 684.34496,504.559041 681.30296,505.171041 C680.38496,505.360041 678.89996,507.178041 679.09796,507.718041 C679.91696,509.914041 681.28496,511.894041 682.45496,513.955041 C683.61596,512.452041 684.76796,510.940041 685.91996,509.437041" id="Fill-65"></path>
            <path d="M525,513.840359 C523.891747,511.8284 523.293642,509.241595 521.569692,507.935874 C519.054133,506.022459 516.213135,507.17215 516.010834,510.21062 C515.870104,512.140459 517.119088,515.244625 518.667124,515.876955 C520.162386,516.492861 522.836267,514.636931 525,513.840359" id="Fill-67"></path>
            <path d="M141,402.295625 C142.209911,404.809977 142.894589,407.967765 144.761041,409.690194 C147.527892,412.244142 150.003989,410.878077 151.373345,407.195641 C152.677048,403.730983 152.029886,400.63259 148.644011,400.058446 C146.271085,399.652587 143.560509,401.464108 141,402.295625" id="Fill-69"></path>
            <path d="M231.649515,364.064763 C229.800275,365.421397 227.900137,366.81092 226,368.200443 C228.994413,369.885959 231.827653,372.163461 235.042618,372.977441 C236.357445,373.306322 240.242547,369.943513 239.988064,369.12131 C238.885306,365.55295 235.865445,363.612551 231.649515,364.064763" id="Fill-71"></path>
            <path d="M401,348.086299 C400.082301,345.754099 399.146953,343.37705 398.22043,341 C394.876122,342.48005 390.525874,343.09898 388.408107,345.637489 C385.222631,349.458709 387.852193,352.822459 392.20244,353.782248 C396.605632,354.742038 399.596979,352.472629 401,348.086299" id="Fill-73"></path>
            <path d="M56.8108429,323.683832 C55.8298429,321.856832 54.9388429,319.957832 53.7598429,318.265832 C53.6158429,318.058832 51.4648429,318.625832 51.0418429,319.327832 C49.3318429,322.144832 50.2318429,324.232832 53.3998429,324.754832 C54.4438429,324.925832 55.6498429,324.079832 56.8108429,323.683832" id="Fill-75"></path>
            <path d="M535.808629,159 C531.150394,161.679518 531.40576,165.931021 533.193325,169.834186 C533.941813,171.468693 537.754697,173.478332 538.688105,172.897769 C542.56263,170.450476 544.147663,166.18111 542.104732,161.938539 C541.312215,160.304032 537.957229,159.9289 535.808629,159" id="Fill-77"></path>
            <path d="M792.747211,152.908023 C794.376211,149.884023 793.476211,147.616023 789.912211,146.698023 C788.985211,146.455023 787.275211,147.247023 786.681211,148.093023 C784.476211,151.297023 785.322211,153.709023 788.895211,154.321023 C790.056211,154.528023 791.451211,153.421023 792.747211,152.908023" id="Fill-79"></path>
            <path d="M313.364646,35.8405 C310.903501,36.7315 308.451751,37.6135 306,38.5135 C308.160547,39.4675 310.33988,41.1595 312.500427,41.1595 C314.003416,41.1595 315.506405,38.8285 317,37.5325 C315.788215,36.9745 314.57643,36.4075 313.364646,35.8405" id="Fill-81"></path>
            <path d="M1002,885.005912 C1003.18617,889.769932 1006.92074,891.617741 1011.33179,890.820819 C1012.95351,890.531825 1015.42777,885.794077 1014.93663,885.286148 C1012.25849,882.483784 1008.77412,880.364495 1005.57703,878 C1004.37233,880.364495 1003.1769,882.702718 1002,885.005912" id="Fill-83"></path>
            <path d="M81,932.034766 C80.4975034,931.071766 80.0831641,929.334766 79.4836944,929.271766 C76.9006855,929.001766 73.8857057,928.398766 71.752299,929.451766 C68.7990294,930.900766 69.6806024,933.672766 73.6300496,934.113766 C75.9926653,934.392766 78.5404113,932.799766 81,932.034766" id="Fill-85"></path>
            <path d="M180.646349,996.72458 C181.582349,996.13058 183.193349,995.65358 183.310349,994.92458 C183.508349,993.71858 183.139349,991.67558 182.320349,991.19858 C179.008349,989.28158 177.109349,990.43358 177.766349,993.88058 C177.964349,994.96958 179.647349,995.78858 180.646349,996.72458" id="Fill-87"></path>
            <path d="M758.009735,1012.03743 C755.783327,1012.96443 752.463418,1013.36043 751.576796,1014.92643 C749.94147,1017.81543 751.941296,1020.11043 755.5863,1020.54243 C759.408628,1021.00143 764.255498,1022.16243 763.989511,1016.55543 C763.920552,1014.97143 760.117926,1013.54943 758.009735,1012.03743" id="Fill-89"></path>
            <polygon id="Fill-91" points="698.0105 3.978 700.3415 5.58 700.9895 3.42"></polygon>
            <polygon id="Fill-94" points="666.185 20.156 667.922 17.276 665.078 16.844"></polygon>
            <path d="M882.786939,39.7018487 C883.857939,39.2068487 885.531939,38.9638487 885.855939,38.1628487 C886.260939,37.1818487 885.963939,35.3728487 885.243939,34.5538487 C883.236939,32.2768487 881.436939,33.1408487 880.968939,36.7858487 C880.851939,37.6588487 882.138939,38.7298487 882.786939,39.7018487" id="Fill-96"></path>
            <polygon id="Fill-98" points="640.411 61.1275 641.59 63.9715 642.589 61.0285"></polygon>
            <path d="M868.841,68.3558422 C869.786,67.5908422 870.749,66.8168422 871.703,66.0518422 C869.813,64.8728422 868.004,63.4778422 865.97,62.6588422 C865.466,62.4698422 864.197,64.1528422 863.297,64.9718422 C865.142,66.1058422 866.987,67.2398422 868.841,68.3558422" id="Fill-100"></path>
            <path d="M804.97317,94.2117589 C806.01717,93.2667589 807.61917,92.4837589 807.72717,91.5297589 C807.81717,90.6657589 806.31417,88.8207589 805.47717,88.7937589 C801.87717,88.6767589 800.39217,90.4317589 801.78717,92.9787589 C802.24617,93.8067589 804.05517,93.8877589 804.97317,94.2117589" id="Fill-102"></path>
            <path d="M330.2955,97.8565615 C328.2075,98.8825615 326.1105,99.9175615 324.0135,100.952562 C324.9675,101.726562 326.1195,103.301562 326.8485,103.130562 C328.9815,102.599562 330.9525,101.384562 332.9865,100.430562 C332.0865,99.5755615 331.1955,98.7205615 330.2955,97.8565615" id="Fill-104"></path>
            <path d="M843.177572,110.216774 C842.484572,109.289774 841.908572,107.777774 841.053572,107.597774 C840.099572,107.390774 838.047572,108.245774 837.939572,108.893774 C837.381572,112.241774 838.857572,113.987774 841.503572,113.276774 C842.277572,113.069774 842.628572,111.278774 843.177572,110.216774" id="Fill-106"></path>
            <path d="M358,237.035233 C355.269504,236.018233 352.880319,234.794233 350.335106,234.344233 C349.41844,234.191233 348.121454,235.883233 347,236.729233 C348.921099,238.133233 350.715426,240.365233 352.821809,240.653233 C354.274823,240.860233 356.176418,238.394233 358,237.035233" id="Fill-108"></path>
            <path d="M786.415686,404.372025 C786.604686,401.825025 785.290686,401.294025 782.581686,402.977025 C782.464686,403.058025 783.049686,404.957025 783.391686,404.984025 C784.372686,405.065025 785.407686,404.615025 786.415686,404.372025" id="Fill-110"></path>
            <path d="M505.13148,413.24231 C507.52548,414.18731 509.65848,415.24931 511.91748,415.76231 C512.35848,415.86131 514.05048,413.15231 513.85248,412.92731 C512.50248,411.41531 510.85548,409.33631 509.18148,409.23731 C507.93948,409.14731 506.52648,411.75731 505.13148,413.24231" id="Fill-112"></path>
            <path d="M933.712316,462.140169 C931.597316,461.375169 929.509316,460.385169 927.331316,460.007169 C926.764316,459.908169 925.252316,461.762169 925.288316,462.662169 C925.333316,463.526169 927.079316,465.155169 927.646316,464.984169 C929.770316,464.372169 931.705316,463.157169 933.712316,462.140169" id="Fill-114"></path>
            <path d="M434.4225,518.671 L433.1085,515.746 L432.5775,521.254 C433.1985,520.39 433.8105,519.535 434.4225,518.671" id="Fill-116"></path>
            <path d="M870.063643,552.925 C869.298643,551.953 868.542643,550.972 867.777643,550 C866.787643,552.043 865.518643,554.014 864.951643,556.174 C864.762643,556.867 866.373643,558.037 867.165643,559 C868.137643,556.975 869.109643,554.959 870.063643,552.925" id="Fill-118"></path>
            <path d="M396,558.365063 C395.055943,557.375063 394.274951,555.935063 393.124918,555.449063 C389.906542,554.081063 387.529235,555.395063 387.005713,558.986063 C386.876978,559.931063 388.962485,562.235063 389.365855,562.073063 C391.691668,561.146063 393.820087,559.670063 396,558.365063" id="Fill-120"></path>
            <path d="M954.9055,567.967342 C954.2575,566.860342 953.3665,564.745342 952.9885,564.826342 C950.6305,565.366342 948.3805,566.401342 946.0945,567.265342 C946.8595,568.291342 947.7865,570.271342 948.3625,570.172342 C950.6035,569.794342 952.7365,568.768342 954.9055,567.967342" id="Fill-122"></path>
            <path d="M522.724115,623.299998 L520.825115,620.032998 C519.979115,620.932998 518.548115,621.742998 518.395115,622.750998 C517.846115,626.206998 519.241115,627.754998 521.590115,626.575998 C522.328115,626.197998 522.364115,624.433998 522.724115,623.299998" id="Fill-124"></path>
            <path d="M423.131229,643.002654 C423.293229,644.073654 423.068229,645.684654 423.689229,646.125654 C424.643229,646.800654 426.371229,647.223654 427.397229,646.800654 C430.916229,645.360654 430.673229,643.434654 426.695229,642.102654 C425.714229,641.769654 424.328229,642.669654 423.131229,643.002654" id="Fill-126"></path>
            <path d="M825.346342,644.010122 C824.293342,644.667122 823.231342,645.324122 822.160342,645.990122 C822.790342,646.980122 823.285342,648.699122 824.059342,648.843122 C827.560342,649.464122 829.423342,648.069122 828.676342,645.513122 C828.460342,644.757122 826.507342,644.505122 825.346342,644.010122" id="Fill-128"></path>
            <path d="M668,671.19928 C670.304673,672.07228 672.340187,673.14328 674.476636,673.48528 C675.183178,673.60228 676.150467,671.83828 677,670.93828 C675.469159,669.69628 673.938318,667.51828 672.390654,667.50928 C670.97757,667.49128 669.539252,669.81328 668,671.19928" id="Fill-130"></path>
            <path d="M346.8875,729.880486 C344.8715,729.322486 342.9095,728.458486 340.8935,728.377486 C340.0025,728.332486 339.0485,729.862486 338.1125,730.681486 C339.9485,731.995486 341.7935,733.318486 343.6295,734.623486 C344.7095,733.057486 345.7895,731.482486 346.8875,729.880486" id="Fill-132"></path>
            <path d="M310.610357,741.486078 C310.799357,738.660078 309.359357,738.066078 306.389357,739.902078 C306.263357,739.992078 306.902357,742.089078 307.298357,742.134078 C308.369357,742.242078 309.503357,741.747078 310.610357,741.486078" id="Fill-134"></path>
            <path d="M830,774.678325 C827.483038,773.994325 825.294751,773.103325 823.071867,772.977325 C822.397217,772.941325 820.840333,775.155325 821.013321,776.073325 C821.618775,779.448325 823.902205,780.924325 826.471063,779.457325 C827.99335,778.602325 828.78909,776.388325 830,774.678325" id="Fill-136"></path>
            <path d="M697.836932,794.831496 C698.934932,794.138496 700.041932,793.436496 701.139932,792.743496 C700.158932,791.879496 699.267932,790.439496 698.187932,790.277496 C694.551932,789.746496 692.985932,791.204496 694.344932,793.589496 C694.803932,794.399496 696.630932,794.435496 697.836932,794.831496" id="Fill-138"></path>
            <path d="M738,887.889641 C735.18717,886.890641 732.712654,885.693641 730.102812,885.261641 C729.271529,885.117641 728.053603,886.998641 727,887.952641 C728.942882,889.311641 730.779438,891.570641 732.828647,891.741641 C734.37522,891.867641 736.192443,889.338641 738,887.889641" id="Fill-140"></path>
            <path d="M981,906.57194 C978.860193,905.13194 976.720386,902.59394 974.571625,902.57594 C972.396006,902.55794 970.193526,905.02394 968,906.40994 C970.14876,907.85894 972.270661,910.39694 974.446281,910.42394 C976.612948,910.45094 978.815427,907.95794 981,906.57194" id="Fill-142"></path>
            <polygon id="Fill-144" points="738.751 4.9635 736.699 3.3705 736.249 5.6295"></polygon>
            <polygon id="Fill-147" points="882.2625 82.149 884.4045 83.589 884.7375 81.411"></polygon>
            <polygon id="Fill-149" points="408.733 100.707 406.483 99.258 406.267 101.742"></polygon>
            <polygon id="Fill-151" points="534.9925 118.2075 537.7285 119.8815 538.0075 117.1185"></polygon>
            <polygon id="Fill-153" points="825.9895 168.68 823.1815 167.114 823.0105 169.886"></polygon>
            <path d="M696.704,177.378225 C695.624,176.424225 694.553,174.723225 693.482,174.723225 C692.411,174.723225 691.349,176.442225 690.296,177.396225 C691.277,178.431225 692.249,180.240225 693.275,180.276225 C694.301,180.312225 695.39,178.575225 696.704,177.378225" id="Fill-155"></path>
            <polygon id="Fill-157" points="816.634 264.8285 814.717 263.3975 814.366 265.6025"></polygon>
            <polygon id="Fill-159" points="189.384 377.149 191.292 378.472 191.616 376.528"></polygon>
            <polygon id="Fill-161" points="536.725 461.357 535.357 463.4 537.643 463.643"></polygon>
            <path d="M894.942172,480.758971 C894.222172,479.867971 893.259172,478.112971 892.827172,478.238971 C889.335172,479.201971 889.128172,481.001971 892.305172,482.747971 C892.710172,482.954971 894.033172,481.460971 894.942172,480.758971" id="Fill-163"></path>
            <path d="M860.867,601.8909 C860.21,600.9819 859.634,599.4699 858.851,599.3529 C858.059,599.2269 857.051,600.4689 856.133,601.1169 C856.799,602.0169 857.357,603.5289 858.149,603.6459 C858.932,603.7809 859.949,602.5299 860.867,601.8909" id="Fill-165"></path>
            <path d="M1016.82513,689.824 L1014.74613,687.007 C1013.82813,687.727 1012.28913,688.366 1012.18113,689.203 C1012.07313,690.022 1013.38713,691.057 1014.08013,691.993 C1014.99813,691.264 1015.90713,690.544 1016.82513,689.824" id="Fill-167"></path>
            <polygon id="Fill-169" points="51.1175 819.9535 52.8005 817.4245 50.1995 817.0465"></polygon>
            <path d="M653.641,836.212 C652.642,835.294 651.571,833.575 650.509,833.575 C649.456,833.584 648.403,835.312 647.359,836.293 L651.895,839.425 C652.426,838.435 652.966,837.445 653.641,836.212" id="Fill-171"></path>
            <path d="M522.921,922.711189 C522.183,921.856189 521.499,920.407189 520.689,920.335189 C519.879,920.272189 518.952,921.577189 518.079,922.288189 C518.817,923.134189 519.501,924.583189 520.32,924.664189 C521.121,924.736189 522.048,923.413189 522.921,922.711189" id="Fill-173"></path>
            <polygon id="Fill-175" points="803.123 1009.2525 805.634 1010.7555 805.877 1008.2445"></polygon>
        </g>
    </g>
</svg>