<?xml version="1.0" encoding="UTF-8"?>
<svg width="1024px" height="1024px" viewBox="0 0 1024 1024" version="1.1" xmlns="http://www.w3.org/2000/svg" xmlns:xlink="http://www.w3.org/1999/xlink">
    <!-- Generator: Sketch 53.2 (72643) - https://sketchapp.com -->
    <title>Reading</title>
    <desc>Created with Sketch.</desc>
    <g id="Reading" stroke="none" stroke-width="1" fill="none" fill-rule="evenodd">
        <rect fill="#4DE1D4" x="0" y="0" width="1024" height="1024"></rect>
        <g id="Group-5" opacity="0.1" transform="translate(-88.000000, -88.000000)" stroke="#FFFFFF">
            <polygon id="Stroke-1246" stroke-width="6.48214286" points="59.4535714 118.917857 118.907143 118.917857 118.907143 59.4535714 59.4535714 59.4535714"></polygon>
            <polygon id="Stroke-1247" stroke-width="6.48214286" points="118.907143 118.917857 178.392857 118.917857 178.392857 59.4535714 118.907143 59.4535714"></polygon>
            <polygon id="Stroke-1248" stroke-width="6.48214286" points="178.392857 118.917857 237.857143 118.917857 237.857143 59.4535714 178.392857 59.4535714"></polygon>
            <polygon id="Stroke-1249" stroke-width="6.48214286" points="237.857143 118.917857 297.321429 118.917857 297.321429 59.4535714 237.857143 59.4535714"></polygon>
            <polygon id="Stroke-1250" stroke-width="6.48214286" points="297.321429 118.917857 356.785714 118.917857 356.785714 59.4535714 297.321429 59.4535714"></polygon>
            <polygon id="Stroke-1251" stroke-width="6.48214286" points="356.775 118.917857 416.228571 118.917857 416.228571 59.4535714 356.775 59.4535714"></polygon>
            <polygon id="Stroke-1252" stroke-width="6.48214286" points="416.228571 118.917857 475.714286 118.917857 475.714286 59.4535714 416.228571 59.4535714"></polygon>
            <polygon id="Stroke-1253" stroke-width="6.48214286" points="475.714286 118.917857 535.178571 118.917857 535.178571 59.4535714 475.714286 59.4535714"></polygon>
            <polygon id="Stroke-1254" stroke-width="6.48214286" points="535.178571 118.917857 594.642857 118.917857 594.642857 59.4535714 535.178571 59.4535714"></polygon>
            <polygon id="Stroke-1256" stroke-width="6.48214286" points="59.4535714 178.392857 118.907143 178.392857 118.907143 118.917857 59.4535714 118.917857"></polygon>
            <polygon id="Stroke-1257" stroke-width="6.48214286" points="118.907143 178.392857 178.392857 178.392857 178.392857 118.917857 118.907143 118.917857"></polygon>
            <polygon id="Stroke-1258" stroke-width="6.48214286" points="178.392857 178.392857 237.857143 178.392857 237.857143 118.917857 178.392857 118.917857"></polygon>
            <polygon id="Stroke-1259" stroke-width="6.48214286" points="237.857143 178.392857 297.321429 178.392857 297.321429 118.917857 237.857143 118.917857"></polygon>
            <polygon id="Stroke-1260" stroke-width="6.48214286" points="297.321429 178.392857 356.785714 178.392857 356.785714 118.917857 297.321429 118.917857"></polygon>
            <polygon id="Stroke-1261" stroke-width="6.48214286" points="356.775 178.392857 416.228571 178.392857 416.228571 118.917857 356.775 118.917857"></polygon>
            <polygon id="Stroke-1262" stroke-width="6.48214286" points="416.228571 178.392857 475.714286 178.392857 475.714286 118.917857 416.228571 118.917857"></polygon>
            <polygon id="Stroke-1263" stroke-width="6.48214286" points="475.714286 178.392857 535.178571 178.392857 535.178571 118.917857 475.714286 118.917857"></polygon>
            <polygon id="Stroke-1264" stroke-width="6.48214286" points="535.178571 178.392857 594.642857 178.392857 594.642857 118.917857 535.178571 118.917857"></polygon>
            <polygon id="Stroke-1266" stroke-width="6.48214286" points="59.4535714 237.857143 118.907143 237.857143 118.907143 178.392857 59.4535714 178.392857"></polygon>
            <polygon id="Stroke-1267" stroke-width="6.48214286" points="118.907143 237.857143 178.392857 237.857143 178.392857 178.392857 118.907143 178.392857"></polygon>
            <polygon id="Stroke-1268" stroke-width="6.48214286" points="178.392857 237.857143 237.857143 237.857143 237.857143 178.392857 178.392857 178.392857"></polygon>
            <polygon id="Stroke-1269" stroke-width="6.48214286" points="237.857143 237.857143 297.321429 237.857143 297.321429 178.392857 237.857143 178.392857"></polygon>
            <polygon id="Stroke-1270" stroke-width="6.48214286" points="297.321429 237.857143 356.785714 237.857143 356.785714 178.392857 297.321429 178.392857"></polygon>
            <polygon id="Stroke-1271" stroke-width="6.48214286" points="356.775 237.857143 416.228571 237.857143 416.228571 178.392857 356.775 178.392857"></polygon>
            <polygon id="Stroke-1272" stroke-width="6.48214286" points="416.228571 237.857143 475.714286 237.857143 475.714286 178.392857 416.228571 178.392857"></polygon>
            <polygon id="Stroke-1273" stroke-width="6.48214286" points="475.714286 237.857143 535.178571 237.857143 535.178571 178.392857 475.714286 178.392857"></polygon>
            <polygon id="Stroke-1274" stroke-width="6.48214286" points="535.178571 237.857143 594.642857 237.857143 594.642857 178.392857 535.178571 178.392857"></polygon>
            <polygon id="Stroke-1276" stroke-width="6.48214286" points="59.4535714 297.332143 118.907143 297.332143 118.907143 237.857143 59.4535714 237.857143"></polygon>
            <polygon id="Stroke-1277" stroke-width="6.48214286" points="118.907143 297.332143 178.392857 297.332143 178.392857 237.857143 118.907143 237.857143"></polygon>
            <polygon id="Stroke-1278" stroke-width="6.48214286" points="178.392857 297.332143 237.857143 297.332143 237.857143 237.857143 178.392857 237.857143"></polygon>
            <polygon id="Stroke-1279" stroke-width="6.48214286" points="237.857143 297.332143 297.321429 297.332143 297.321429 237.857143 237.857143 237.857143"></polygon>
            <polygon id="Stroke-1280" stroke-width="6.48214286" points="297.321429 297.332143 356.785714 297.332143 356.785714 237.857143 297.321429 237.857143"></polygon>
            <polygon id="Stroke-1281" stroke-width="6.48214286" points="356.775 297.332143 416.228571 297.332143 416.228571 237.857143 356.775 237.857143"></polygon>
            <polygon id="Stroke-1282" stroke-width="6.48214286" points="416.228571 297.332143 475.714286 297.332143 475.714286 237.857143 416.228571 237.857143"></polygon>
            <polygon id="Stroke-1283" stroke-width="6.48214286" points="475.714286 297.332143 535.178571 297.332143 535.178571 237.857143 475.714286 237.857143"></polygon>
            <polygon id="Stroke-1284" stroke-width="6.48214286" points="535.178571 297.332143 594.642857 297.332143 594.642857 237.857143 535.178571 237.857143"></polygon>
            <polygon id="Stroke-1286" stroke-width="6.48214286" points="59.4535714 356.796429 118.907143 356.796429 118.907143 297.332143 59.4535714 297.332143"></polygon>
            <polygon id="Stroke-1287" stroke-width="6.48214286" points="118.907143 356.796429 178.392857 356.796429 178.392857 297.332143 118.907143 297.332143"></polygon>
            <polygon id="Stroke-1288" stroke-width="6.48214286" points="178.392857 356.796429 237.857143 356.796429 237.857143 297.332143 178.392857 297.332143"></polygon>
            <polygon id="Stroke-1289" stroke-width="6.48214286" points="237.857143 356.796429 297.321429 356.796429 297.321429 297.332143 237.857143 297.332143"></polygon>
            <polygon id="Stroke-1290" stroke-width="6.48214286" points="297.321429 356.796429 356.785714 356.796429 356.785714 297.332143 297.321429 297.332143"></polygon>
            <polygon id="Stroke-1291" stroke-width="6.48214286" points="356.775 356.796429 416.228571 356.796429 416.228571 297.332143 356.775 297.332143"></polygon>
            <polygon id="Stroke-1292" stroke-width="6.48214286" points="416.228571 356.796429 475.714286 356.796429 475.714286 297.332143 416.228571 297.332143"></polygon>
            <polygon id="Stroke-1293" stroke-width="6.48214286" points="475.714286 356.796429 535.178571 356.796429 535.178571 297.332143 475.714286 297.332143"></polygon>
            <polygon id="Stroke-1294" stroke-width="6.48214286" points="535.178571 356.796429 594.642857 356.796429 594.642857 297.332143 535.178571 297.332143"></polygon>
            <polygon id="Stroke-1296" stroke-width="6.48214286" points="59.4535714 416.25 118.907143 416.25 118.907143 356.785714 59.4535714 356.785714"></polygon>
            <polygon id="Stroke-1297" stroke-width="6.48214286" points="118.907143 416.25 178.392857 416.25 178.392857 356.785714 118.907143 356.785714"></polygon>
            <polygon id="Stroke-1298" stroke-width="6.48214286" points="178.392857 416.25 237.857143 416.25 237.857143 356.785714 178.392857 356.785714"></polygon>
            <polygon id="Stroke-1299" stroke-width="6.48214286" points="237.857143 416.25 297.321429 416.25 297.321429 356.785714 237.857143 356.785714"></polygon>
            <polygon id="Stroke-1300" stroke-width="6.48214286" points="297.321429 416.25 356.785714 416.25 356.785714 356.785714 297.321429 356.785714"></polygon>
            <polygon id="Stroke-1301" stroke-width="6.48214286" points="356.775 416.25 416.228571 416.25 416.228571 356.785714 356.775 356.785714"></polygon>
            <polygon id="Stroke-1302" stroke-width="6.48214286" points="416.228571 416.25 475.714286 416.25 475.714286 356.785714 416.228571 356.785714"></polygon>
            <polygon id="Stroke-1303" stroke-width="6.48214286" points="475.714286 416.25 535.178571 416.25 535.178571 356.785714 475.714286 356.785714"></polygon>
            <polygon id="Stroke-1304" stroke-width="6.48214286" points="535.178571 416.25 594.642857 416.25 594.642857 356.785714 535.178571 356.785714"></polygon>
            <polygon id="Stroke-1306" stroke-width="6.48214286" points="59.4535714 475.714286 118.907143 475.714286 118.907143 416.25 59.4535714 416.25"></polygon>
            <polygon id="Stroke-1307" stroke-width="6.48214286" points="118.907143 475.714286 178.392857 475.714286 178.392857 416.25 118.907143 416.25"></polygon>
            <polygon id="Stroke-1308" stroke-width="6.48214286" points="178.392857 475.714286 237.857143 475.714286 237.857143 416.25 178.392857 416.25"></polygon>
            <polygon id="Stroke-1309" stroke-width="6.48214286" points="237.857143 475.714286 297.321429 475.714286 297.321429 416.25 237.857143 416.25"></polygon>
            <polygon id="Stroke-1310" stroke-width="6.48214286" points="297.321429 475.714286 356.785714 475.714286 356.785714 416.25 297.321429 416.25"></polygon>
            <polygon id="Stroke-1311" stroke-width="6.48214286" points="356.775 475.714286 416.228571 475.714286 416.228571 416.25 356.775 416.25"></polygon>
            <polygon id="Stroke-1312" stroke-width="6.48214286" points="416.228571 475.714286 475.714286 475.714286 475.714286 416.25 416.228571 416.25"></polygon>
            <polygon id="Stroke-1313" stroke-width="6.48214286" points="475.714286 475.714286 535.178571 475.714286 535.178571 416.25 475.714286 416.25"></polygon>
            <polygon id="Stroke-1314" stroke-width="6.48214286" points="535.178571 475.714286 594.642857 475.714286 594.642857 416.25 535.178571 416.25"></polygon>
            <polygon id="Stroke-1316" stroke-width="6.48214286" points="59.4535714 535.178571 118.907143 535.178571 118.907143 475.714286 59.4535714 475.714286"></polygon>
            <polygon id="Stroke-1317" stroke-width="6.48214286" points="118.907143 535.178571 178.392857 535.178571 178.392857 475.714286 118.907143 475.714286"></polygon>
            <polygon id="Stroke-1318" stroke-width="6.48214286" points="178.392857 535.178571 237.857143 535.178571 237.857143 475.714286 178.392857 475.714286"></polygon>
            <polygon id="Stroke-1319" stroke-width="6.48214286" points="237.857143 535.178571 297.321429 535.178571 297.321429 475.714286 237.857143 475.714286"></polygon>
            <polygon id="Stroke-1320" stroke-width="6.48214286" points="297.321429 535.178571 356.785714 535.178571 356.785714 475.714286 297.321429 475.714286"></polygon>
            <polygon id="Stroke-1321" stroke-width="6.48214286" points="356.775 535.178571 416.228571 535.178571 416.228571 475.714286 356.775 475.714286"></polygon>
            <polygon id="Stroke-1322" stroke-width="6.48214286" points="416.228571 535.178571 475.714286 535.178571 475.714286 475.714286 416.228571 475.714286"></polygon>
            <polygon id="Stroke-1323" stroke-width="6.48214286" points="475.714286 535.178571 535.178571 535.178571 535.178571 475.714286 475.714286 475.714286"></polygon>
            <polygon id="Stroke-1324" stroke-width="6.48214286" points="535.178571 535.178571 594.642857 535.178571 594.642857 475.714286 535.178571 475.714286"></polygon>
            <polygon id="Stroke-1326" stroke-width="6.48214286" points="59.4535714 594.642857 118.907143 594.642857 118.907143 535.178571 59.4535714 535.178571"></polygon>
            <polygon id="Stroke-1327" stroke-width="6.48214286" points="118.907143 594.642857 178.392857 594.642857 178.392857 535.178571 118.907143 535.178571"></polygon>
            <polygon id="Stroke-1328" stroke-width="6.48214286" points="178.392857 594.642857 237.857143 594.642857 237.857143 535.178571 178.392857 535.178571"></polygon>
            <polygon id="Stroke-1329" stroke-width="6.48214286" points="237.857143 594.642857 297.321429 594.642857 297.321429 535.178571 237.857143 535.178571"></polygon>
            <polygon id="Stroke-1330" stroke-width="6.48214286" points="297.321429 594.642857 356.785714 594.642857 356.785714 535.178571 297.321429 535.178571"></polygon>
            <polygon id="Stroke-1331" stroke-width="6.48214286" points="356.775 594.642857 416.228571 594.642857 416.228571 535.178571 356.775 535.178571"></polygon>
            <polygon id="Stroke-1332" stroke-width="6.48214286" points="416.228571 594.642857 475.714286 594.642857 475.714286 535.178571 416.228571 535.178571"></polygon>
            <polygon id="Stroke-1333" stroke-width="6.48214286" points="475.714286 594.642857 535.178571 594.642857 535.178571 535.178571 475.714286 535.178571"></polygon>
            <polygon id="Stroke-1334" stroke-width="6.48214286" points="535.178571 594.642857 594.642857 594.642857 594.642857 535.178571 535.178571 535.178571"></polygon>
            <polygon id="Stroke-1335" stroke-width="12.9642857" points="0 594.642857 594.642857 594.642857 594.642857 0 0 0"></polygon>
            <polygon id="Stroke-1347" stroke-width="6.48214286" points="594.642857 118.917857 654.096429 118.917857 654.096429 59.4535714 594.642857 59.4535714"></polygon>
            <polygon id="Stroke-1348" stroke-width="6.48214286" points="654.085714 118.917857 713.582143 118.917857 713.582143 59.4535714 654.085714 59.4535714"></polygon>
            <polygon id="Stroke-1349" stroke-width="6.48214286" points="713.582143 118.917857 773.046429 118.917857 773.046429 59.4535714 713.582143 59.4535714"></polygon>
            <polygon id="Stroke-1350" stroke-width="6.48214286" points="773.046429 118.917857 832.510714 118.917857 832.510714 59.4535714 773.046429 59.4535714"></polygon>
            <polygon id="Stroke-1351" stroke-width="6.48214286" points="832.510714 118.917857 891.975 118.917857 891.975 59.4535714 832.510714 59.4535714"></polygon>
            <polygon id="Stroke-1352" stroke-width="6.48214286" points="891.964286 118.917857 951.439286 118.917857 951.439286 59.4535714 891.964286 59.4535714"></polygon>
            <polygon id="Stroke-1353" stroke-width="6.48214286" points="951.439286 118.917857 1010.89286 118.917857 1010.89286 59.4535714 951.439286 59.4535714"></polygon>
            <polygon id="Stroke-1354" stroke-width="6.48214286" points="1010.89286 118.917857 1070.35714 118.917857 1070.35714 59.4535714 1010.89286 59.4535714"></polygon>
            <polygon id="Stroke-1355" stroke-width="6.48214286" points="1070.35714 118.917857 1129.85357 118.917857 1129.85357 59.4535714 1070.35714 59.4535714"></polygon>
            <polygon id="Stroke-1357" stroke-width="6.48214286" points="594.642857 178.392857 654.096429 178.392857 654.096429 118.917857 594.642857 118.917857"></polygon>
            <polygon id="Stroke-1358" stroke-width="6.48214286" points="654.085714 178.392857 713.582143 178.392857 713.582143 118.917857 654.085714 118.917857"></polygon>
            <polygon id="Stroke-1359" stroke-width="6.48214286" points="713.582143 178.392857 773.046429 178.392857 773.046429 118.917857 713.582143 118.917857"></polygon>
            <polygon id="Stroke-1360" stroke-width="6.48214286" points="773.046429 178.392857 832.510714 178.392857 832.510714 118.917857 773.046429 118.917857"></polygon>
            <polygon id="Stroke-1361" stroke-width="6.48214286" points="832.510714 178.392857 891.975 178.392857 891.975 118.917857 832.510714 118.917857"></polygon>
            <polygon id="Stroke-1362" stroke-width="6.48214286" points="891.964286 178.392857 951.439286 178.392857 951.439286 118.917857 891.964286 118.917857"></polygon>
            <polygon id="Stroke-1363" stroke-width="6.48214286" points="951.439286 178.392857 1010.89286 178.392857 1010.89286 118.917857 951.439286 118.917857"></polygon>
            <polygon id="Stroke-1364" stroke-width="6.48214286" points="1010.89286 178.392857 1070.35714 178.392857 1070.35714 118.917857 1010.89286 118.917857"></polygon>
            <polygon id="Stroke-1365" stroke-width="6.48214286" points="1070.35714 178.392857 1129.85357 178.392857 1129.85357 118.917857 1070.35714 118.917857"></polygon>
            <polygon id="Stroke-1367" stroke-width="6.48214286" points="594.642857 237.857143 654.096429 237.857143 654.096429 178.392857 594.642857 178.392857"></polygon>
            <polygon id="Stroke-1368" stroke-width="6.48214286" points="654.085714 237.857143 713.582143 237.857143 713.582143 178.392857 654.085714 178.392857"></polygon>
            <polygon id="Stroke-1369" stroke-width="6.48214286" points="713.582143 237.857143 773.046429 237.857143 773.046429 178.392857 713.582143 178.392857"></polygon>
            <polygon id="Stroke-1370" stroke-width="6.48214286" points="773.046429 237.857143 832.510714 237.857143 832.510714 178.392857 773.046429 178.392857"></polygon>
            <polygon id="Stroke-1371" stroke-width="6.48214286" points="832.510714 237.857143 891.975 237.857143 891.975 178.392857 832.510714 178.392857"></polygon>
            <polygon id="Stroke-1372" stroke-width="6.48214286" points="891.964286 237.857143 951.439286 237.857143 951.439286 178.392857 891.964286 178.392857"></polygon>
            <polygon id="Stroke-1373" stroke-width="6.48214286" points="951.439286 237.857143 1010.89286 237.857143 1010.89286 178.392857 951.439286 178.392857"></polygon>
            <polygon id="Stroke-1374" stroke-width="6.48214286" points="1010.89286 237.857143 1070.35714 237.857143 1070.35714 178.392857 1010.89286 178.392857"></polygon>
            <polygon id="Stroke-1375" stroke-width="6.48214286" points="1070.35714 237.857143 1129.85357 237.857143 1129.85357 178.392857 1070.35714 178.392857"></polygon>
            <polygon id="Stroke-1377" stroke-width="6.48214286" points="594.642857 297.332143 654.096429 297.332143 654.096429 237.857143 594.642857 237.857143"></polygon>
            <polygon id="Stroke-1378" stroke-width="6.48214286" points="654.085714 297.332143 713.582143 297.332143 713.582143 237.857143 654.085714 237.857143"></polygon>
            <polygon id="Stroke-1379" stroke-width="6.48214286" points="713.582143 297.332143 773.046429 297.332143 773.046429 237.857143 713.582143 237.857143"></polygon>
            <polygon id="Stroke-1380" stroke-width="6.48214286" points="773.046429 297.332143 832.510714 297.332143 832.510714 237.857143 773.046429 237.857143"></polygon>
            <polygon id="Stroke-1381" stroke-width="6.48214286" points="832.510714 297.332143 891.975 297.332143 891.975 237.857143 832.510714 237.857143"></polygon>
            <polygon id="Stroke-1382" stroke-width="6.48214286" points="891.964286 297.332143 951.439286 297.332143 951.439286 237.857143 891.964286 237.857143"></polygon>
            <polygon id="Stroke-1383" stroke-width="6.48214286" points="951.439286 297.332143 1010.89286 297.332143 1010.89286 237.857143 951.439286 237.857143"></polygon>
            <polygon id="Stroke-1384" stroke-width="6.48214286" points="1010.89286 297.332143 1070.35714 297.332143 1070.35714 237.857143 1010.89286 237.857143"></polygon>
            <polygon id="Stroke-1385" stroke-width="6.48214286" points="1070.35714 297.332143 1129.85357 297.332143 1129.85357 237.857143 1070.35714 237.857143"></polygon>
            <polygon id="Stroke-1387" stroke-width="6.48214286" points="594.642857 356.796429 654.096429 356.796429 654.096429 297.332143 594.642857 297.332143"></polygon>
            <polygon id="Stroke-1388" stroke-width="6.48214286" points="654.085714 356.796429 713.582143 356.796429 713.582143 297.332143 654.085714 297.332143"></polygon>
            <polygon id="Stroke-1389" stroke-width="6.48214286" points="713.582143 356.796429 773.046429 356.796429 773.046429 297.332143 713.582143 297.332143"></polygon>
            <polygon id="Stroke-1390" stroke-width="6.48214286" points="773.046429 356.796429 832.510714 356.796429 832.510714 297.332143 773.046429 297.332143"></polygon>
            <polygon id="Stroke-1391" stroke-width="6.48214286" points="832.510714 356.796429 891.975 356.796429 891.975 297.332143 832.510714 297.332143"></polygon>
            <polygon id="Stroke-1392" stroke-width="6.48214286" points="891.964286 356.796429 951.439286 356.796429 951.439286 297.332143 891.964286 297.332143"></polygon>
            <polygon id="Stroke-1393" stroke-width="6.48214286" points="951.439286 356.796429 1010.89286 356.796429 1010.89286 297.332143 951.439286 297.332143"></polygon>
            <polygon id="Stroke-1394" stroke-width="6.48214286" points="1010.89286 356.796429 1070.35714 356.796429 1070.35714 297.332143 1010.89286 297.332143"></polygon>
            <polygon id="Stroke-1395" stroke-width="6.48214286" points="1070.35714 356.796429 1129.85357 356.796429 1129.85357 297.332143 1070.35714 297.332143"></polygon>
            <polygon id="Stroke-1397" stroke-width="6.48214286" points="594.642857 416.25 654.096429 416.25 654.096429 356.785714 594.642857 356.785714"></polygon>
            <polygon id="Stroke-1398" stroke-width="6.48214286" points="654.085714 416.25 713.582143 416.25 713.582143 356.785714 654.085714 356.785714"></polygon>
            <polygon id="Stroke-1399" stroke-width="6.48214286" points="713.582143 416.25 773.046429 416.25 773.046429 356.785714 713.582143 356.785714"></polygon>
            <polygon id="Stroke-1400" stroke-width="6.48214286" points="773.046429 416.25 832.510714 416.25 832.510714 356.785714 773.046429 356.785714"></polygon>
            <polygon id="Stroke-1401" stroke-width="6.48214286" points="832.510714 416.25 891.975 416.25 891.975 356.785714 832.510714 356.785714"></polygon>
            <polygon id="Stroke-1402" stroke-width="6.48214286" points="891.964286 416.25 951.439286 416.25 951.439286 356.785714 891.964286 356.785714"></polygon>
            <polygon id="Stroke-1403" stroke-width="6.48214286" points="951.439286 416.25 1010.89286 416.25 1010.89286 356.785714 951.439286 356.785714"></polygon>
            <polygon id="Stroke-1404" stroke-width="6.48214286" points="1010.89286 416.25 1070.35714 416.25 1070.35714 356.785714 1010.89286 356.785714"></polygon>
            <polygon id="Stroke-1405" stroke-width="6.48214286" points="1070.35714 416.25 1129.85357 416.25 1129.85357 356.785714 1070.35714 356.785714"></polygon>
            <polygon id="Stroke-1407" stroke-width="6.48214286" points="594.642857 475.714286 654.096429 475.714286 654.096429 416.25 594.642857 416.25"></polygon>
            <polygon id="Stroke-1408" stroke-width="6.48214286" points="654.085714 475.714286 713.582143 475.714286 713.582143 416.25 654.085714 416.25"></polygon>
            <polygon id="Stroke-1409" stroke-width="6.48214286" points="713.582143 475.714286 773.046429 475.714286 773.046429 416.25 713.582143 416.25"></polygon>
            <polygon id="Stroke-1410" stroke-width="6.48214286" points="773.046429 475.714286 832.510714 475.714286 832.510714 416.25 773.046429 416.25"></polygon>
            <polygon id="Stroke-1411" stroke-width="6.48214286" points="832.510714 475.714286 891.975 475.714286 891.975 416.25 832.510714 416.25"></polygon>
            <polygon id="Stroke-1412" stroke-width="6.48214286" points="891.964286 475.714286 951.439286 475.714286 951.439286 416.25 891.964286 416.25"></polygon>
            <polygon id="Stroke-1413" stroke-width="6.48214286" points="951.439286 475.714286 1010.89286 475.714286 1010.89286 416.25 951.439286 416.25"></polygon>
            <polygon id="Stroke-1414" stroke-width="6.48214286" points="1010.89286 475.714286 1070.35714 475.714286 1070.35714 416.25 1010.89286 416.25"></polygon>
            <polygon id="Stroke-1415" stroke-width="6.48214286" points="1070.35714 475.714286 1129.85357 475.714286 1129.85357 416.25 1070.35714 416.25"></polygon>
            <polygon id="Stroke-1417" stroke-width="6.48214286" points="594.642857 535.178571 654.096429 535.178571 654.096429 475.714286 594.642857 475.714286"></polygon>
            <polygon id="Stroke-1418" stroke-width="6.48214286" points="654.085714 535.178571 713.582143 535.178571 713.582143 475.714286 654.085714 475.714286"></polygon>
            <polygon id="Stroke-1419" stroke-width="6.48214286" points="713.582143 535.178571 773.046429 535.178571 773.046429 475.714286 713.582143 475.714286"></polygon>
            <polygon id="Stroke-1420" stroke-width="6.48214286" points="773.046429 535.178571 832.510714 535.178571 832.510714 475.714286 773.046429 475.714286"></polygon>
            <polygon id="Stroke-1421" stroke-width="6.48214286" points="832.510714 535.178571 891.975 535.178571 891.975 475.714286 832.510714 475.714286"></polygon>
            <polygon id="Stroke-1422" stroke-width="6.48214286" points="891.964286 535.178571 951.439286 535.178571 951.439286 475.714286 891.964286 475.714286"></polygon>
            <polygon id="Stroke-1423" stroke-width="6.48214286" points="951.439286 535.178571 1010.89286 535.178571 1010.89286 475.714286 951.439286 475.714286"></polygon>
            <polygon id="Stroke-1424" stroke-width="6.48214286" points="1010.89286 535.178571 1070.35714 535.178571 1070.35714 475.714286 1010.89286 475.714286"></polygon>
            <polygon id="Stroke-1425" stroke-width="6.48214286" points="1070.35714 535.178571 1129.85357 535.178571 1129.85357 475.714286 1070.35714 475.714286"></polygon>
            <polygon id="Stroke-1427" stroke-width="6.48214286" points="594.642857 594.642857 654.096429 594.642857 654.096429 535.178571 594.642857 535.178571"></polygon>
            <polygon id="Stroke-1428" stroke-width="6.48214286" points="654.085714 594.642857 713.582143 594.642857 713.582143 535.178571 654.085714 535.178571"></polygon>
            <polygon id="Stroke-1429" stroke-width="6.48214286" points="713.582143 594.642857 773.046429 594.642857 773.046429 535.178571 713.582143 535.178571"></polygon>
            <polygon id="Stroke-1430" stroke-width="6.48214286" points="773.046429 594.642857 832.510714 594.642857 832.510714 535.178571 773.046429 535.178571"></polygon>
            <polygon id="Stroke-1431" stroke-width="6.48214286" points="832.510714 594.642857 891.975 594.642857 891.975 535.178571 832.510714 535.178571"></polygon>
            <polygon id="Stroke-1432" stroke-width="6.48214286" points="891.964286 594.642857 951.439286 594.642857 951.439286 535.178571 891.964286 535.178571"></polygon>
            <polygon id="Stroke-1433" stroke-width="6.48214286" points="951.439286 594.642857 1010.89286 594.642857 1010.89286 535.178571 951.439286 535.178571"></polygon>
            <polygon id="Stroke-1434" stroke-width="6.48214286" points="1010.89286 594.642857 1070.35714 594.642857 1070.35714 535.178571 1010.89286 535.178571"></polygon>
            <polygon id="Stroke-1435" stroke-width="6.48214286" points="1070.35714 594.642857 1129.85357 594.642857 1129.85357 535.178571 1070.35714 535.178571"></polygon>
            <polygon id="Stroke-1437" stroke-width="12.9642857" points="594.642857 594.642857 1189.29643 594.642857 1189.29643 0 594.642857 0"></polygon>
            <polygon id="Stroke-2663" stroke-width="6.48214286" points="59.4535714 654.117857 118.907143 654.117857 118.907143 594.642857 59.4535714 594.642857"></polygon>
            <polygon id="Stroke-2664" stroke-width="6.48214286" points="118.907143 654.117857 178.392857 654.117857 178.392857 594.642857 118.907143 594.642857"></polygon>
            <polygon id="Stroke-2665" stroke-width="6.48214286" points="178.392857 654.117857 237.857143 654.117857 237.857143 594.642857 178.392857 594.642857"></polygon>
            <polygon id="Stroke-2666" stroke-width="6.48214286" points="237.857143 654.117857 297.321429 654.117857 297.321429 594.642857 237.857143 594.642857"></polygon>
            <polygon id="Stroke-2667" stroke-width="6.48214286" points="297.321429 654.117857 356.785714 654.117857 356.785714 594.642857 297.321429 594.642857"></polygon>
            <polygon id="Stroke-2668" stroke-width="6.48214286" points="356.775 654.117857 416.228571 654.117857 416.228571 594.642857 356.775 594.642857"></polygon>
            <polygon id="Stroke-2669" stroke-width="6.48214286" points="416.228571 654.117857 475.714286 654.117857 475.714286 594.642857 416.228571 594.642857"></polygon>
            <polygon id="Stroke-2670" stroke-width="6.48214286" points="475.714286 654.117857 535.178571 654.117857 535.178571 594.642857 475.714286 594.642857"></polygon>
            <polygon id="Stroke-2671" stroke-width="6.48214286" points="535.178571 654.117857 594.642857 654.117857 594.642857 594.642857 535.178571 594.642857"></polygon>
            <polygon id="Stroke-2673" stroke-width="6.48214286" points="59.4535714 713.571429 118.907143 713.571429 118.907143 654.107143 59.4535714 654.107143"></polygon>
            <polygon id="Stroke-2674" stroke-width="6.48214286" points="118.907143 713.571429 178.392857 713.571429 178.392857 654.107143 118.907143 654.107143"></polygon>
            <polygon id="Stroke-2675" stroke-width="6.48214286" points="178.392857 713.571429 237.857143 713.571429 237.857143 654.107143 178.392857 654.107143"></polygon>
            <polygon id="Stroke-2676" stroke-width="6.48214286" points="237.857143 713.571429 297.321429 713.571429 297.321429 654.107143 237.857143 654.107143"></polygon>
            <polygon id="Stroke-2677" stroke-width="6.48214286" points="297.321429 713.571429 356.785714 713.571429 356.785714 654.107143 297.321429 654.107143"></polygon>
            <polygon id="Stroke-2678" stroke-width="6.48214286" points="356.775 713.571429 416.228571 713.571429 416.228571 654.107143 356.775 654.107143"></polygon>
            <polygon id="Stroke-2679" stroke-width="6.48214286" points="416.228571 713.571429 475.714286 713.571429 475.714286 654.107143 416.228571 654.107143"></polygon>
            <polygon id="Stroke-2680" stroke-width="6.48214286" points="475.714286 713.571429 535.178571 713.571429 535.178571 654.107143 475.714286 654.107143"></polygon>
            <polygon id="Stroke-2681" stroke-width="6.48214286" points="535.178571 713.571429 594.642857 713.571429 594.642857 654.107143 535.178571 654.107143"></polygon>
            <polygon id="Stroke-2683" stroke-width="6.48214286" points="59.4535714 773.035714 118.907143 773.035714 118.907143 713.571429 59.4535714 713.571429"></polygon>
            <polygon id="Stroke-2684" stroke-width="6.48214286" points="118.907143 773.035714 178.392857 773.035714 178.392857 713.571429 118.907143 713.571429"></polygon>
            <polygon id="Stroke-2685" stroke-width="6.48214286" points="178.392857 773.035714 237.857143 773.035714 237.857143 713.571429 178.392857 713.571429"></polygon>
            <polygon id="Stroke-2686" stroke-width="6.48214286" points="237.857143 773.035714 297.321429 773.035714 297.321429 713.571429 237.857143 713.571429"></polygon>
            <polygon id="Stroke-2687" stroke-width="6.48214286" points="297.321429 773.035714 356.785714 773.035714 356.785714 713.571429 297.321429 713.571429"></polygon>
            <polygon id="Stroke-2688" stroke-width="6.48214286" points="356.775 773.035714 416.228571 773.035714 416.228571 713.571429 356.775 713.571429"></polygon>
            <polygon id="Stroke-2689" stroke-width="6.48214286" points="416.228571 773.035714 475.714286 773.035714 475.714286 713.571429 416.228571 713.571429"></polygon>
            <polygon id="Stroke-2690" stroke-width="6.48214286" points="475.714286 773.035714 535.178571 773.035714 535.178571 713.571429 475.714286 713.571429"></polygon>
            <polygon id="Stroke-2691" stroke-width="6.48214286" points="535.178571 773.035714 594.642857 773.035714 594.642857 713.571429 535.178571 713.571429"></polygon>
            <polygon id="Stroke-2693" stroke-width="6.48214286" points="59.4535714 832.510714 118.907143 832.510714 118.907143 773.035714 59.4535714 773.035714"></polygon>
            <polygon id="Stroke-2694" stroke-width="6.48214286" points="118.907143 832.510714 178.392857 832.510714 178.392857 773.035714 118.907143 773.035714"></polygon>
            <polygon id="Stroke-2695" stroke-width="6.48214286" points="178.392857 832.510714 237.857143 832.510714 237.857143 773.035714 178.392857 773.035714"></polygon>
            <polygon id="Stroke-2696" stroke-width="6.48214286" points="237.857143 832.510714 297.321429 832.510714 297.321429 773.035714 237.857143 773.035714"></polygon>
            <polygon id="Stroke-2697" stroke-width="6.48214286" points="297.321429 832.510714 356.785714 832.510714 356.785714 773.035714 297.321429 773.035714"></polygon>
            <polygon id="Stroke-2698" stroke-width="6.48214286" points="356.775 832.510714 416.228571 832.510714 416.228571 773.035714 356.775 773.035714"></polygon>
            <polygon id="Stroke-2699" stroke-width="6.48214286" points="416.228571 832.510714 475.714286 832.510714 475.714286 773.035714 416.228571 773.035714"></polygon>
            <polygon id="Stroke-2700" stroke-width="6.48214286" points="475.714286 832.510714 535.178571 832.510714 535.178571 773.035714 475.714286 773.035714"></polygon>
            <polygon id="Stroke-2701" stroke-width="6.48214286" points="535.178571 832.510714 594.642857 832.510714 594.642857 773.035714 535.178571 773.035714"></polygon>
            <polygon id="Stroke-2703" stroke-width="6.48214286" points="59.4535714 891.975 118.907143 891.975 118.907143 832.510714 59.4535714 832.510714"></polygon>
            <polygon id="Stroke-2704" stroke-width="6.48214286" points="118.907143 891.975 178.392857 891.975 178.392857 832.510714 118.907143 832.510714"></polygon>
            <polygon id="Stroke-2705" stroke-width="6.48214286" points="178.392857 891.975 237.857143 891.975 237.857143 832.510714 178.392857 832.510714"></polygon>
            <polygon id="Stroke-2706" stroke-width="6.48214286" points="237.857143 891.975 297.321429 891.975 297.321429 832.510714 237.857143 832.510714"></polygon>
            <polygon id="Stroke-2707" stroke-width="6.48214286" points="297.321429 891.975 356.785714 891.975 356.785714 832.510714 297.321429 832.510714"></polygon>
            <polygon id="Stroke-2708" stroke-width="6.48214286" points="356.775 891.975 416.228571 891.975 416.228571 832.510714 356.775 832.510714"></polygon>
            <polygon id="Stroke-2709" stroke-width="6.48214286" points="416.228571 891.975 475.714286 891.975 475.714286 832.510714 416.228571 832.510714"></polygon>
            <polygon id="Stroke-2710" stroke-width="6.48214286" points="475.714286 891.975 535.178571 891.975 535.178571 832.510714 475.714286 832.510714"></polygon>
            <polygon id="Stroke-2711" stroke-width="6.48214286" points="535.178571 891.975 594.642857 891.975 594.642857 832.510714 535.178571 832.510714"></polygon>
            <polygon id="Stroke-2713" stroke-width="6.48214286" points="59.4535714 951.45 118.907143 951.45 118.907143 891.975 59.4535714 891.975"></polygon>
            <polygon id="Stroke-2714" stroke-width="6.48214286" points="118.907143 951.45 178.392857 951.45 178.392857 891.975 118.907143 891.975"></polygon>
            <polygon id="Stroke-2715" stroke-width="6.48214286" points="178.392857 951.45 237.857143 951.45 237.857143 891.975 178.392857 891.975"></polygon>
            <polygon id="Stroke-2716" stroke-width="6.48214286" points="237.857143 951.45 297.321429 951.45 297.321429 891.975 237.857143 891.975"></polygon>
            <polygon id="Stroke-2717" stroke-width="6.48214286" points="297.321429 951.45 356.785714 951.45 356.785714 891.975 297.321429 891.975"></polygon>
            <polygon id="Stroke-2718" stroke-width="6.48214286" points="356.775 951.45 416.228571 951.45 416.228571 891.975 356.775 891.975"></polygon>
            <polygon id="Stroke-2719" stroke-width="6.48214286" points="416.228571 951.45 475.714286 951.45 475.714286 891.975 416.228571 891.975"></polygon>
            <polygon id="Stroke-2720" stroke-width="6.48214286" points="475.714286 951.45 535.178571 951.45 535.178571 891.975 475.714286 891.975"></polygon>
            <polygon id="Stroke-2721" stroke-width="6.48214286" points="535.178571 951.45 594.642857 951.45 594.642857 891.975 535.178571 891.975"></polygon>
            <polygon id="Stroke-2723" stroke-width="6.48214286" points="59.4535714 1010.90357 118.907143 1010.90357 118.907143 951.439286 59.4535714 951.439286"></polygon>
            <polygon id="Stroke-2724" stroke-width="6.48214286" points="118.907143 1010.90357 178.392857 1010.90357 178.392857 951.439286 118.907143 951.439286"></polygon>
            <polygon id="Stroke-2725" stroke-width="6.48214286" points="178.392857 1010.90357 237.857143 1010.90357 237.857143 951.439286 178.392857 951.439286"></polygon>
            <polygon id="Stroke-2726" stroke-width="6.48214286" points="237.857143 1010.90357 297.321429 1010.90357 297.321429 951.439286 237.857143 951.439286"></polygon>
            <polygon id="Stroke-2727" stroke-width="6.48214286" points="297.321429 1010.90357 356.785714 1010.90357 356.785714 951.439286 297.321429 951.439286"></polygon>
            <polygon id="Stroke-2728" stroke-width="6.48214286" points="356.775 1010.90357 416.228571 1010.90357 416.228571 951.439286 356.775 951.439286"></polygon>
            <polygon id="Stroke-2729" stroke-width="6.48214286" points="416.228571 1010.90357 475.714286 1010.90357 475.714286 951.439286 416.228571 951.439286"></polygon>
            <polygon id="Stroke-2730" stroke-width="6.48214286" points="475.714286 1010.90357 535.178571 1010.90357 535.178571 951.439286 475.714286 951.439286"></polygon>
            <polygon id="Stroke-2731" stroke-width="6.48214286" points="535.178571 1010.90357 594.642857 1010.90357 594.642857 951.439286 535.178571 951.439286"></polygon>
            <polygon id="Stroke-2733" stroke-width="6.48214286" points="59.4535714 1070.36786 118.907143 1070.36786 118.907143 1010.90357 59.4535714 1010.90357"></polygon>
            <polygon id="Stroke-2734" stroke-width="6.48214286" points="118.907143 1070.36786 178.392857 1070.36786 178.392857 1010.90357 118.907143 1010.90357"></polygon>
            <polygon id="Stroke-2735" stroke-width="6.48214286" points="178.392857 1070.36786 237.857143 1070.36786 237.857143 1010.90357 178.392857 1010.90357"></polygon>
            <polygon id="Stroke-2736" stroke-width="6.48214286" points="237.857143 1070.36786 297.321429 1070.36786 297.321429 1010.90357 237.857143 1010.90357"></polygon>
            <polygon id="Stroke-2737" stroke-width="6.48214286" points="297.321429 1070.36786 356.785714 1070.36786 356.785714 1010.90357 297.321429 1010.90357"></polygon>
            <polygon id="Stroke-2738" stroke-width="6.48214286" points="356.775 1070.36786 416.228571 1070.36786 416.228571 1010.90357 356.775 1010.90357"></polygon>
            <polygon id="Stroke-2739" stroke-width="6.48214286" points="416.228571 1070.36786 475.714286 1070.36786 475.714286 1010.90357 416.228571 1010.90357"></polygon>
            <polygon id="Stroke-2740" stroke-width="6.48214286" points="475.714286 1070.36786 535.178571 1070.36786 535.178571 1010.90357 475.714286 1010.90357"></polygon>
            <polygon id="Stroke-2741" stroke-width="6.48214286" points="535.178571 1070.36786 594.642857 1070.36786 594.642857 1010.90357 535.178571 1010.90357"></polygon>
            <polygon id="Stroke-2743" stroke-width="6.48214286" points="59.4535714 1129.83214 118.907143 1129.83214 118.907143 1070.36786 59.4535714 1070.36786"></polygon>
            <polygon id="Stroke-2744" stroke-width="6.48214286" points="118.907143 1129.83214 178.392857 1129.83214 178.392857 1070.36786 118.907143 1070.36786"></polygon>
            <polygon id="Stroke-2745" stroke-width="6.48214286" points="178.392857 1129.83214 237.857143 1129.83214 237.857143 1070.36786 178.392857 1070.36786"></polygon>
            <polygon id="Stroke-2746" stroke-width="6.48214286" points="237.857143 1129.83214 297.321429 1129.83214 297.321429 1070.36786 237.857143 1070.36786"></polygon>
            <polygon id="Stroke-2747" stroke-width="6.48214286" points="297.321429 1129.83214 356.785714 1129.83214 356.785714 1070.36786 297.321429 1070.36786"></polygon>
            <polygon id="Stroke-2748" stroke-width="6.48214286" points="356.775 1129.83214 416.228571 1129.83214 416.228571 1070.36786 356.775 1070.36786"></polygon>
            <polygon id="Stroke-2749" stroke-width="6.48214286" points="416.228571 1129.83214 475.714286 1129.83214 475.714286 1070.36786 416.228571 1070.36786"></polygon>
            <polygon id="Stroke-2750" stroke-width="6.48214286" points="475.714286 1129.83214 535.178571 1129.83214 535.178571 1070.36786 475.714286 1070.36786"></polygon>
            <polygon id="Stroke-2751" stroke-width="6.48214286" points="535.178571 1129.83214 594.642857 1129.83214 594.642857 1070.36786 535.178571 1070.36786"></polygon>
            <polygon id="Stroke-2762" stroke-width="12.9642857" points="0 1189.29643 594.642857 1189.29643 594.642857 594.642857 0 594.642857"></polygon>
            <polygon id="Stroke-2763" stroke-width="6.48214286" points="594.642857 654.117857 654.096429 654.117857 654.096429 594.642857 594.642857 594.642857"></polygon>
            <polygon id="Stroke-2764" stroke-width="6.48214286" points="654.085714 654.117857 713.582143 654.117857 713.582143 594.642857 654.085714 594.642857"></polygon>
            <polygon id="Stroke-2765" stroke-width="6.48214286" points="713.582143 654.117857 773.046429 654.117857 773.046429 594.642857 713.582143 594.642857"></polygon>
            <polygon id="Stroke-2766" stroke-width="6.48214286" points="773.046429 654.117857 832.510714 654.117857 832.510714 594.642857 773.046429 594.642857"></polygon>
            <polygon id="Stroke-2767" stroke-width="6.48214286" points="832.510714 654.117857 891.975 654.117857 891.975 594.642857 832.510714 594.642857"></polygon>
            <polygon id="Stroke-2768" stroke-width="6.48214286" points="891.964286 654.117857 951.439286 654.117857 951.439286 594.642857 891.964286 594.642857"></polygon>
            <polygon id="Stroke-2769" stroke-width="6.48214286" points="951.439286 654.117857 1010.89286 654.117857 1010.89286 594.642857 951.439286 594.642857"></polygon>
            <polygon id="Stroke-2770" stroke-width="6.48214286" points="1010.89286 654.117857 1070.35714 654.117857 1070.35714 594.642857 1010.89286 594.642857"></polygon>
            <polygon id="Stroke-2771" stroke-width="6.48214286" points="1070.35714 654.117857 1129.85357 654.117857 1129.85357 594.642857 1070.35714 594.642857"></polygon>
            <polygon id="Stroke-2773" stroke-width="6.48214286" points="594.642857 713.571429 654.096429 713.571429 654.096429 654.107143 594.642857 654.107143"></polygon>
            <polygon id="Stroke-2774" stroke-width="6.48214286" points="654.085714 713.571429 713.582143 713.571429 713.582143 654.107143 654.085714 654.107143"></polygon>
            <polygon id="Stroke-2775" stroke-width="6.48214286" points="713.582143 713.571429 773.046429 713.571429 773.046429 654.107143 713.582143 654.107143"></polygon>
            <polygon id="Stroke-2776" stroke-width="6.48214286" points="773.046429 713.571429 832.510714 713.571429 832.510714 654.107143 773.046429 654.107143"></polygon>
            <polygon id="Stroke-2777" stroke-width="6.48214286" points="832.510714 713.571429 891.975 713.571429 891.975 654.107143 832.510714 654.107143"></polygon>
            <polygon id="Stroke-2778" stroke-width="6.48214286" points="891.964286 713.571429 951.439286 713.571429 951.439286 654.107143 891.964286 654.107143"></polygon>
            <polygon id="Stroke-2779" stroke-width="6.48214286" points="951.439286 713.571429 1010.89286 713.571429 1010.89286 654.107143 951.439286 654.107143"></polygon>
            <polygon id="Stroke-2780" stroke-width="6.48214286" points="1010.89286 713.571429 1070.35714 713.571429 1070.35714 654.107143 1010.89286 654.107143"></polygon>
            <polygon id="Stroke-2781" stroke-width="6.48214286" points="1070.35714 713.571429 1129.85357 713.571429 1129.85357 654.107143 1070.35714 654.107143"></polygon>
            <polygon id="Stroke-2783" stroke-width="6.48214286" points="594.642857 773.035714 654.096429 773.035714 654.096429 713.571429 594.642857 713.571429"></polygon>
            <polygon id="Stroke-2784" stroke-width="6.48214286" points="654.085714 773.035714 713.582143 773.035714 713.582143 713.571429 654.085714 713.571429"></polygon>
            <polygon id="Stroke-2785" stroke-width="6.48214286" points="713.582143 773.035714 773.046429 773.035714 773.046429 713.571429 713.582143 713.571429"></polygon>
            <polygon id="Stroke-2786" stroke-width="6.48214286" points="773.046429 773.035714 832.510714 773.035714 832.510714 713.571429 773.046429 713.571429"></polygon>
            <polygon id="Stroke-2787" stroke-width="6.48214286" points="832.510714 773.035714 891.975 773.035714 891.975 713.571429 832.510714 713.571429"></polygon>
            <polygon id="Stroke-2788" stroke-width="6.48214286" points="891.964286 773.035714 951.439286 773.035714 951.439286 713.571429 891.964286 713.571429"></polygon>
            <polygon id="Stroke-2789" stroke-width="6.48214286" points="951.439286 773.035714 1010.89286 773.035714 1010.89286 713.571429 951.439286 713.571429"></polygon>
            <polygon id="Stroke-2790" stroke-width="6.48214286" points="1010.89286 773.035714 1070.35714 773.035714 1070.35714 713.571429 1010.89286 713.571429"></polygon>
            <polygon id="Stroke-2791" stroke-width="6.48214286" points="1070.35714 773.035714 1129.85357 773.035714 1129.85357 713.571429 1070.35714 713.571429"></polygon>
            <polygon id="Stroke-2793" stroke-width="6.48214286" points="594.642857 832.510714 654.096429 832.510714 654.096429 773.035714 594.642857 773.035714"></polygon>
            <polygon id="Stroke-2794" stroke-width="6.48214286" points="654.085714 832.510714 713.582143 832.510714 713.582143 773.035714 654.085714 773.035714"></polygon>
            <polygon id="Stroke-2795" stroke-width="6.48214286" points="713.582143 832.510714 773.046429 832.510714 773.046429 773.035714 713.582143 773.035714"></polygon>
            <polygon id="Stroke-2796" stroke-width="6.48214286" points="773.046429 832.510714 832.510714 832.510714 832.510714 773.035714 773.046429 773.035714"></polygon>
            <polygon id="Stroke-2797" stroke-width="6.48214286" points="832.510714 832.510714 891.975 832.510714 891.975 773.035714 832.510714 773.035714"></polygon>
            <polygon id="Stroke-2798" stroke-width="6.48214286" points="891.964286 832.510714 951.439286 832.510714 951.439286 773.035714 891.964286 773.035714"></polygon>
            <polygon id="Stroke-2799" stroke-width="6.48214286" points="951.439286 832.510714 1010.89286 832.510714 1010.89286 773.035714 951.439286 773.035714"></polygon>
            <polygon id="Stroke-2800" stroke-width="6.48214286" points="1010.89286 832.510714 1070.35714 832.510714 1070.35714 773.035714 1010.89286 773.035714"></polygon>
            <polygon id="Stroke-2801" stroke-width="6.48214286" points="1070.35714 832.510714 1129.85357 832.510714 1129.85357 773.035714 1070.35714 773.035714"></polygon>
            <polygon id="Stroke-2803" stroke-width="6.48214286" points="594.642857 891.975 654.096429 891.975 654.096429 832.510714 594.642857 832.510714"></polygon>
            <polygon id="Stroke-2804" stroke-width="6.48214286" points="654.085714 891.975 713.582143 891.975 713.582143 832.510714 654.085714 832.510714"></polygon>
            <polygon id="Stroke-2805" stroke-width="6.48214286" points="713.582143 891.975 773.046429 891.975 773.046429 832.510714 713.582143 832.510714"></polygon>
            <polygon id="Stroke-2806" stroke-width="6.48214286" points="773.046429 891.975 832.510714 891.975 832.510714 832.510714 773.046429 832.510714"></polygon>
            <polygon id="Stroke-2807" stroke-width="6.48214286" points="832.510714 891.975 891.975 891.975 891.975 832.510714 832.510714 832.510714"></polygon>
            <polygon id="Stroke-2808" stroke-width="6.48214286" points="891.964286 891.975 951.439286 891.975 951.439286 832.510714 891.964286 832.510714"></polygon>
            <polygon id="Stroke-2809" stroke-width="6.48214286" points="951.439286 891.975 1010.89286 891.975 1010.89286 832.510714 951.439286 832.510714"></polygon>
            <polygon id="Stroke-2810" stroke-width="6.48214286" points="1010.89286 891.975 1070.35714 891.975 1070.35714 832.510714 1010.89286 832.510714"></polygon>
            <polygon id="Stroke-2811" stroke-width="6.48214286" points="1070.35714 891.975 1129.85357 891.975 1129.85357 832.510714 1070.35714 832.510714"></polygon>
            <polygon id="Stroke-2813" stroke-width="6.48214286" points="594.642857 951.45 654.096429 951.45 654.096429 891.975 594.642857 891.975"></polygon>
            <polygon id="Stroke-2814" stroke-width="6.48214286" points="654.085714 951.45 713.582143 951.45 713.582143 891.975 654.085714 891.975"></polygon>
            <polygon id="Stroke-2815" stroke-width="6.48214286" points="713.582143 951.45 773.046429 951.45 773.046429 891.975 713.582143 891.975"></polygon>
            <polygon id="Stroke-2816" stroke-width="6.48214286" points="773.046429 951.45 832.510714 951.45 832.510714 891.975 773.046429 891.975"></polygon>
            <polygon id="Stroke-2817" stroke-width="6.48214286" points="832.510714 951.45 891.975 951.45 891.975 891.975 832.510714 891.975"></polygon>
            <polygon id="Stroke-2818" stroke-width="6.48214286" points="891.964286 951.45 951.439286 951.45 951.439286 891.975 891.964286 891.975"></polygon>
            <polygon id="Stroke-2819" stroke-width="6.48214286" points="951.439286 951.45 1010.89286 951.45 1010.89286 891.975 951.439286 891.975"></polygon>
            <polygon id="Stroke-2820" stroke-width="6.48214286" points="1010.89286 951.45 1070.35714 951.45 1070.35714 891.975 1010.89286 891.975"></polygon>
            <polygon id="Stroke-2821" stroke-width="6.48214286" points="1070.35714 951.45 1129.85357 951.45 1129.85357 891.975 1070.35714 891.975"></polygon>
            <polygon id="Stroke-2823" stroke-width="6.48214286" points="594.642857 1010.90357 654.096429 1010.90357 654.096429 951.439286 594.642857 951.439286"></polygon>
            <polygon id="Stroke-2824" stroke-width="6.48214286" points="654.085714 1010.90357 713.582143 1010.90357 713.582143 951.439286 654.085714 951.439286"></polygon>
            <polygon id="Stroke-2825" stroke-width="6.48214286" points="713.582143 1010.90357 773.046429 1010.90357 773.046429 951.439286 713.582143 951.439286"></polygon>
            <polygon id="Stroke-2826" stroke-width="6.48214286" points="773.046429 1010.90357 832.510714 1010.90357 832.510714 951.439286 773.046429 951.439286"></polygon>
            <polygon id="Stroke-2827" stroke-width="6.48214286" points="832.510714 1010.90357 891.975 1010.90357 891.975 951.439286 832.510714 951.439286"></polygon>
            <polygon id="Stroke-2828" stroke-width="6.48214286" points="891.964286 1010.90357 951.439286 1010.90357 951.439286 951.439286 891.964286 951.439286"></polygon>
            <polygon id="Stroke-2829" stroke-width="6.48214286" points="951.439286 1010.90357 1010.89286 1010.90357 1010.89286 951.439286 951.439286 951.439286"></polygon>
            <polygon id="Stroke-2830" stroke-width="6.48214286" points="1010.89286 1010.90357 1070.35714 1010.90357 1070.35714 951.439286 1010.89286 951.439286"></polygon>
            <polygon id="Stroke-2831" stroke-width="6.48214286" points="1070.35714 1010.90357 1129.85357 1010.90357 1129.85357 951.439286 1070.35714 951.439286"></polygon>
            <polygon id="Stroke-2833" stroke-width="6.48214286" points="594.642857 1070.36786 654.096429 1070.36786 654.096429 1010.90357 594.642857 1010.90357"></polygon>
            <polygon id="Stroke-2834" stroke-width="6.48214286" points="654.085714 1070.36786 713.582143 1070.36786 713.582143 1010.90357 654.085714 1010.90357"></polygon>
            <polygon id="Stroke-2835" stroke-width="6.48214286" points="713.582143 1070.36786 773.046429 1070.36786 773.046429 1010.90357 713.582143 1010.90357"></polygon>
            <polygon id="Stroke-2836" stroke-width="6.48214286" points="773.046429 1070.36786 832.510714 1070.36786 832.510714 1010.90357 773.046429 1010.90357"></polygon>
            <polygon id="Stroke-2837" stroke-width="6.48214286" points="832.510714 1070.36786 891.975 1070.36786 891.975 1010.90357 832.510714 1010.90357"></polygon>
            <polygon id="Stroke-2838" stroke-width="6.48214286" points="891.964286 1070.36786 951.439286 1070.36786 951.439286 1010.90357 891.964286 1010.90357"></polygon>
            <polygon id="Stroke-2839" stroke-width="6.48214286" points="951.439286 1070.36786 1010.89286 1070.36786 1010.89286 1010.90357 951.439286 1010.90357"></polygon>
            <polygon id="Stroke-2840" stroke-width="6.48214286" points="1010.89286 1070.36786 1070.35714 1070.36786 1070.35714 1010.90357 1010.89286 1010.90357"></polygon>
            <polygon id="Stroke-2841" stroke-width="6.48214286" points="1070.35714 1070.36786 1129.85357 1070.36786 1129.85357 1010.90357 1070.35714 1010.90357"></polygon>
            <polygon id="Stroke-2843" stroke-width="6.48214286" points="594.642857 1129.83214 654.096429 1129.83214 654.096429 1070.36786 594.642857 1070.36786"></polygon>
            <polygon id="Stroke-2844" stroke-width="6.48214286" points="654.085714 1129.83214 713.582143 1129.83214 713.582143 1070.36786 654.085714 1070.36786"></polygon>
            <polygon id="Stroke-2845" stroke-width="6.48214286" points="713.582143 1129.83214 773.046429 1129.83214 773.046429 1070.36786 713.582143 1070.36786"></polygon>
            <polygon id="Stroke-2846" stroke-width="6.48214286" points="773.046429 1129.83214 832.510714 1129.83214 832.510714 1070.36786 773.046429 1070.36786"></polygon>
            <polygon id="Stroke-2847" stroke-width="6.48214286" points="832.510714 1129.83214 891.975 1129.83214 891.975 1070.36786 832.510714 1070.36786"></polygon>
            <polygon id="Stroke-2848" stroke-width="6.48214286" points="891.964286 1129.83214 951.439286 1129.83214 951.439286 1070.36786 891.964286 1070.36786"></polygon>
            <polygon id="Stroke-2849" stroke-width="6.48214286" points="951.439286 1129.83214 1010.89286 1129.83214 1010.89286 1070.36786 951.439286 1070.36786"></polygon>
            <polygon id="Stroke-2850" stroke-width="6.48214286" points="1010.89286 1129.83214 1070.35714 1129.83214 1070.35714 1070.36786 1010.89286 1070.36786"></polygon>
            <polygon id="Stroke-2851" stroke-width="6.48214286" points="1070.35714 1129.83214 1129.85357 1129.83214 1129.85357 1070.36786 1070.35714 1070.36786"></polygon>
            <polygon id="Stroke-2863" stroke-width="12.9642857" points="594.642857 1189.29643 1189.29643 1189.29643 1189.29643 594.642857 594.642857 594.642857"></polygon>
        </g>
        <path d="M58.5,93.0821429 C83.0766714,93.0821429 103,73.1588142 103,48.5821429 C103,32.1976953 88.1666667,7.33698099 58.5,-26 C28.8333333,7.33698099 14,32.1976953 14,48.5821429 C14,73.1588142 33.9233286,93.0821429 58.5,93.0821429 Z" id="Oval" stroke="#4F1C22" stroke-width="4" fill="#EFF1DF"></path>
        <path d="M196.5,159.082143 C221.076671,159.082143 241,139.158814 241,114.582143 C241,98.1976953 226.166667,73.336981 196.5,40 C166.833333,73.336981 152,98.1976953 152,114.582143 C152,139.158814 171.923329,159.082143 196.5,159.082143 Z" id="Oval-Copy" stroke="#4F1C22" stroke-width="4" fill="#F59AA1"></path>
        <path d="M334.5,104.082143 C359.076671,104.082143 379,84.1588142 379,59.5821429 C379,43.1976953 364.166667,18.336981 334.5,-15 C304.833333,18.336981 290,43.1976953 290,59.5821429 C290,84.1588142 309.923329,104.082143 334.5,104.082143 Z" id="Oval-Copy-2" stroke="#4F1C22" stroke-width="4" fill="#EFF1DF"></path>
        <path d="M472.5,131.082143 C497.076671,131.082143 517,111.158814 517,86.5821429 C517,70.1976953 502.166667,45.336981 472.5,12 C442.833333,45.336981 428,70.1976953 428,86.5821429 C428,111.158814 447.923329,131.082143 472.5,131.082143 Z" id="Oval-Copy-3" stroke="#4F1C22" stroke-width="4" fill="#F59AA1"></path>
        <path d="M979.5,941.082143 C1004.07667,941.082143 1024,921.158814 1024,896.582143 C1024,880.197695 1009.16667,855.336981 979.5,822 C949.833333,855.336981 935,880.197695 935,896.582143 C935,921.158814 954.923329,941.082143 979.5,941.082143 Z" id="Oval-Copy-4" stroke="#4F1C22" stroke-width="4" fill="#F59AA1"></path>
        <path d="M847.5,1060.08214 C872.076671,1060.08214 892,1040.15881 892,1015.58214 C892,999.197695 877.166667,974.336981 847.5,941 C817.833333,974.336981 803,999.197695 803,1015.58214 C803,1040.15881 822.923329,1060.08214 847.5,1060.08214 Z" id="Oval-Copy-5" stroke="#4F1C22" stroke-width="4" fill="#ECEFDD"></path>
        <path d="M715.5,1002.08214 C740.076671,1002.08214 760,982.158814 760,957.582143 C760,941.197695 745.166667,916.336981 715.5,883 C685.833333,916.336981 671,941.197695 671,957.582143 C671,982.158814 690.923329,1002.08214 715.5,1002.08214 Z" id="Oval-Copy-6" stroke="#4F1C22" stroke-width="4" fill="#F59AA1"></path>
        <path d="M583.5,1040.08214 C608.076671,1040.08214 628,1020.15881 628,995.582143 C628,979.197695 613.166667,954.336981 583.5,921 C553.833333,954.336981 539,979.197695 539,995.582143 C539,1020.15881 558.923329,1040.08214 583.5,1040.08214 Z" id="Oval-Copy-7" stroke="#4F1C22" stroke-width="4" fill="#ECEFDD"></path>
    </g>
</svg>